  0
SECTION
  2
HEADER
  9
$ACADVER
  1
AC1024
  9
$ACADMAINTVER
 70
     6
  9
$DWGCODEPAGE
  3
UNDEFINED
  9
$INSBASE
 10
0.0
 20
0.0
 30
0.0
  9
$EXTMIN
 10
1.000000000000000E+20
 20
1.000000000000000E+20
 30
1.000000000000000E+20
  9
$EXTMAX
 10
-1.000000000000000E+20
 20
-1.000000000000000E+20
 30
-1.000000000000000E+20
  9
$LIMMIN
 10
0.0
 20
0.0
  9
$LIMMAX
 10
12.0
 20
9.0
  9
$ORTHOMODE
 70
     0
  9
$REGENMODE
 70
     1
  9
$FILLMODE
 70
     1
  9
$QTEXTMODE
 70
     0
  9
$MIRRTEXT
 70
     1
  9
$LTSCALE
 40
1.0
  9
$ATTMODE
 70
     1
  9
$TEXTSIZE
 40
0.2
  9
$TRACEWID
 40
0.05
  9
$TEXTSTYLE
  7
Standard
  9
$CLAYER
  8
0
  9
$CELTYPE
  6
ByLayer
  9
$CECOLOR
 62
   256
  9
$CELTSCALE
 40
1.0
  9
$DISPSILH
 70
     0
  9
$DIMSCALE
 40
1.0
  9
$DIMASZ
 40
0.18
  9
$DIMEXO
 40
0.0625
  9
$DIMDLI
 40
0.38
  9
$DIMRND
 40
0.0
  9
$DIMDLE
 40
0.0
  9
$DIMEXE
 40
0.18
  9
$DIMTP
 40
0.0
  9
$DIMTM
 40
0.0
  9
$DIMTXT
 40
0.18
  9
$DIMCEN
 40
0.09
  9
$DIMTSZ
 40
0.0
  9
$DIMTOL
 70
     0
  9
$DIMLIM
 70
     0
  9
$DIMTIH
 70
     1
  9
$DIMTOH
 70
     1
  9
$DIMSE1
 70
     0
  9
$DIMSE2
 70
     0
  9
$DIMTAD
 70
     0
  9
$DIMZIN
 70
     0
  9
$DIMBLK
  1

  9
$DIMASO
 70
     1
  9
$DIMSHO
 70
     1
  9
$DIMPOST
  1

  9
$DIMAPOST
  1

  9
$DIMALT
 70
     0
  9
$DIMALTD
 70
     2
  9
$DIMALTF
 40
25.4
  9
$DIMLFAC
 40
1.0
  9
$DIMTOFL
 70
     0
  9
$DIMTVP
 40
0.0
  9
$DIMTIX
 70
     0
  9
$DIMSOXD
 70
     0
  9
$DIMSAH
 70
     0
  9
$DIMBLK1
  1

  9
$DIMBLK2
  1

  9
$DIMSTYLE
  2
Standard
  9
$DIMCLRD
 70
     0
  9
$DIMCLRE
 70
     0
  9
$DIMCLRT
 70
     0
  9
$DIMTFAC
 40
1.0
  9
$DIMGAP
 40
0.09
  9
$DIMJUST
 70
     0
  9
$DIMSD1
 70
     0
  9
$DIMSD2
 70
     0
  9
$DIMTOLJ
 70
     1
  9
$DIMTZIN
 70
     0
  9
$DIMALTZ
 70
     0
  9
$DIMALTTZ
 70
     0
  9
$DIMUPT
 70
     0
  9
$DIMDEC
 70
     4
  9
$DIMTDEC
 70
     4
  9
$DIMALTU
 70
     2
  9
$DIMALTTD
 70
     2
  9
$DIMTXSTY
  7
Standard
  9
$DIMAUNIT
 70
     0
  9
$DIMADEC
 70
     0
  9
$DIMALTRND
 40
0.0
  9
$DIMAZIN
 70
     0
  9
$DIMDSEP
 70
    46
  9
$DIMATFIT
 70
     3
  9
$DIMFRAC
 70
     0
  9
$DIMLDRBLK
  1

  9
$DIMLUNIT
 70
     2
  9
$DIMLWD
 70
    -2
  9
$DIMLWE
 70
    -2
  9
$DIMTMOVE
 70
     0
  9
$DIMFXL
 40
1.0
  9
$DIMFXLON
 70
     0
  9
$DIMJOGANG
 40
0.7853981633974483
  9
$DIMTFILL
 70
     0
  9
$DIMTFILLCLR
 70
     0
  9
$DIMARCSYM
 70
     0
  9
$DIMLTYPE
  6

  9
$DIMLTEX1
  6

  9
$DIMLTEX2
  6

  9
$DIMTXTDIRECTION
 70
     0
  9
$LUNITS
 70
     2
  9
$LUPREC
 70
     4
  9
$SKETCHINC
 40
0.1
  9
$FILLETRAD
 40
0.5
  9
$AUNITS
 70
     0
  9
$AUPREC
 70
     0
  9
$MENU
  1
.
  9
$ELEVATION
 40
0.0
  9
$PELEVATION
 40
0.0
  9
$THICKNESS
 40
0.0
  9
$LIMCHECK
 70
     0
  9
$CHAMFERA
 40
0.5
  9
$CHAMFERB
 40
0.5
  9
$CHAMFERC
 40
1.0
  9
$CHAMFERD
 40
0.0
  9
$SKPOLY
 70
     0
  9
$TDCREATE
 40
2458345.90005787
  9
$TDUCREATE
 40
2458346.191724537
  9
$TDUPDATE
 40
2458345.90005787
  9
$TDUUPDATE
 40
2458346.191724537
  9
$TDINDWG
 40
0.0000000116
  9
$TDUSRTIMER
 40
0.0000000116
  9
$USRTIMER
 70
     1
  9
$ANGBASE
 50
0.0
  9
$ANGDIR
 70
     0
  9
$PDMODE
 70
     0
  9
$PDSIZE
 40
0.0
  9
$PLINEWID
 40
0.0
  9
$SPLFRAME
 70
     0
  9
$SPLINETYPE
 70
     6
  9
$SPLINESEGS
 70
     8
  9
$HANDSEED
  5
4D
  9
$SURFTAB1
 70
     6
  9
$SURFTAB2
 70
     6
  9
$SURFTYPE
 70
     6
  9
$SURFU
 70
     6
  9
$SURFV
 70
     6
  9
$UCSBASE
  2

  9
$UCSNAME
  2

  9
$UCSORG
 10
0.0
 20
0.0
 30
0.0
  9
$UCSXDIR
 10
1.0
 20
0.0
 30
0.0
  9
$UCSYDIR
 10
0.0
 20
1.0
 30
0.0
  9
$UCSORTHOREF
  2

  9
$UCSORTHOVIEW
 70
     0
  9
$UCSORGTOP
 10
0.0
 20
0.0
 30
0.0
  9
$UCSORGBOTTOM
 10
0.0
 20
0.0
 30
0.0
  9
$UCSORGLEFT
 10
0.0
 20
0.0
 30
0.0
  9
$UCSORGRIGHT
 10
0.0
 20
0.0
 30
0.0
  9
$UCSORGFRONT
 10
0.0
 20
0.0
 30
0.0
  9
$UCSORGBACK
 10
0.0
 20
0.0
 30
0.0
  9
$PUCSBASE
  2

  9
$PUCSNAME
  2

  9
$PUCSORG
 10
0.0
 20
0.0
 30
0.0
  9
$PUCSXDIR
 10
1.0
 20
0.0
 30
0.0
  9
$PUCSYDIR
 10
0.0
 20
1.0
 30
0.0
  9
$PUCSORTHOREF
  2

  9
$PUCSORTHOVIEW
 70
     0
  9
$PUCSORGTOP
 10
0.0
 20
0.0
 30
0.0
  9
$PUCSORGBOTTOM
 10
0.0
 20
0.0
 30
0.0
  9
$PUCSORGLEFT
 10
0.0
 20
0.0
 30
0.0
  9
$PUCSORGRIGHT
 10
0.0
 20
0.0
 30
0.0
  9
$PUCSORGFRONT
 10
0.0
 20
0.0
 30
0.0
  9
$PUCSORGBACK
 10
0.0
 20
0.0
 30
0.0
  9
$USERI1
 70
     0
  9
$USERI2
 70
     0
  9
$USERI3
 70
     0
  9
$USERI4
 70
     0
  9
$USERI5
 70
     0
  9
$USERR1
 40
0.0
  9
$USERR2
 40
0.0
  9
$USERR3
 40
0.0
  9
$USERR4
 40
0.0
  9
$USERR5
 40
0.0
  9
$WORLDVIEW
 70
     1
  9
$SHADEDGE
 70
     3
  9
$SHADEDIF
 70
    70
  9
$TILEMODE
 70
     1
  9
$MAXACTVP
 70
    64
  9
$PINSBASE
 10
0.0
 20
0.0
 30
0.0
  9
$PLIMCHECK
 70
     0
  9
$PEXTMIN
 10
1.000000000000000E+20
 20
1.000000000000000E+20
 30
1.000000000000000E+20
  9
$PEXTMAX
 10
-1.000000000000000E+20
 20
-1.000000000000000E+20
 30
-1.000000000000000E+20
  9
$PLIMMIN
 10
0.0
 20
0.0
  9
$PLIMMAX
 10
12.0
 20
9.0
  9
$UNITMODE
 70
     0
  9
$VISRETAIN
 70
     1
  9
$PLINEGEN
 70
     0
  9
$PSLTSCALE
 70
     1
  9
$TREEDEPTH
 70
  3020
  9
$CMLSTYLE
  2
Standard
  9
$CMLJUST
 70
     0
  9
$CMLSCALE
 40
1.0
  9
$PROXYGRAPHICS
 70
     1
  9
$MEASUREMENT
 70
     0
  9
$CELWEIGHT
370
    -1
  9
$ENDCAPS
280
     0
  9
$JOINSTYLE
280
     0
  9
$LWDISPLAY
290
     1
  9
$INSUNITS
 70
     1
  9
$HYPERLINKBASE
  1

  9
$STYLESHEET
  1

  9
$XEDIT
290
     1
  9
$CEPSNTYPE
380
     0
  9
$PSTYLEMODE
290
     1
  9
$FINGERPRINTGUID
  2
{AE0F5FB1-75C6-17CC-4F09-7FC8D895FB0B}
  9
$VERSIONGUID
  2
{FAEB1C32-E019-11D5-929B-00C0DF256EC4}
  9
$EXTNAMES
290
     1
  9
$PSVPSCALE
 40
0.0
  9
$OLESTARTUP
290
     0
  9
$SORTENTS
280
   127
  9
$INDEXCTL
280
     0
  9
$HIDETEXT
280
     1
  9
$XCLIPFRAME
280
     2
  9
$HALOGAP
280
     0
  9
$OBSCOLOR
 70
   257
  9
$OBSLTYPE
280
     0
  9
$INTERSECTIONDISPLAY
280
     0
  9
$INTERSECTIONCOLOR
 70
   257
  9
$DIMASSOC
280
     2
  9
$PROJECTNAME
  1

  9
$CAMERADISPLAY
290
     0
  9
$LENSLENGTH
 40
50.0
  9
$CAMERAHEIGHT
 40
0.0
  9
$STEPSPERSEC
 40
2.0
  9
$STEPSIZE
 40
6.0
  9
$3DDWFPREC
 40
2.0
  9
$PSOLWIDTH
 40
0.25
  9
$PSOLHEIGHT
 40
4.0
  9
$LOFTANG1
 40
1.570796326794897
  9
$LOFTANG2
 40
1.570796326794897
  9
$LOFTMAG1
 40
0.0
  9
$LOFTMAG2
 40
0.0
  9
$LOFTPARAM
 70
     7
  9
$LOFTNORMALS
280
     1
  9
$LATITUDE
 40
37.795
  9
$LONGITUDE
 40
-122.394
  9
$NORTHDIRECTION
 40
0.0
  9
$TIMEZONE
 70
 -8000
  9
$LIGHTGLYPHDISPLAY
280
     1
  9
$TILEMODELIGHTSYNCH
280
     1
  9
$CMATERIAL
347
3C
  9
$SOLIDHIST
280
     1
  9
$SHOWHIST
280
     1
  9
$DWFFRAME
280
     2
  9
$DGNFRAME
280
     2
  9
$REALWORLDSCALE
290
     1
  9
$INTERFERECOLOR
 62
   256
  9
$CSHADOW
280
     0
  9
$SHADOWPLANELOCATION
 40
0.0
  0
ENDSEC
  0
SECTION
  2
CLASSES
  0
CLASS
  1
ACDBDICTIONARYWDFLT
  2
AcDbDictionaryWithDefault
  3
ObjectDBX Classes
 90
        0
 91
        4
280
     0
281
     0
  0
CLASS
  1
VISUALSTYLE
  2
AcDbVisualStyle
  3
ObjectDBX Classes
 90
     4095
 91
        4
280
     0
281
     0
  0
CLASS
  1
MATERIAL
  2
AcDbMaterial
  3
ObjectDBX Classes
 90
     1153
 91
        4
280
     0
281
     0
  0
CLASS
  1
SUN
  2
AcDbSun
  3
SCENEOE
 90
     1024
 91
        4
280
     0
281
     0
  0
ENDSEC
  0
SECTION
  2
TABLES
  0
TABLE
  2
VPORT
  5
8
330
0
100
AcDbSymbolTable
 70
     1
  0
VPORT
  5
29
330
8
100
AcDbSymbolTableRecord
100
AcDbViewportTableRecord
  2
*Active
 70
     0
 10
0.0
 20
0.0
 11
1.0
 21
1.0
 12
0.0
 22
0.0
 13
0.0
 23
0.0
 14
0.5
 24
0.5
 15
0.5
 25
0.5
 16
0.0
 26
0.0
 36
1.0
 17
24.99999999375587
 27
-24.99999999375587
 37
0.0
 40
49.99999998751174
 41
1.0
 42
50.0
 43
0.0
 44
0.0
 50
0.0
 51
0.0
 71
     0
 72
   100
 73
     1
 74
     3
 75
     0
 76
     0
 77
     0
 78
     0
281
     0
 65
     1
110
0.0
120
0.0
130
0.0
111
1.0
121
0.0
131
0.0
112
0.0
122
1.0
132
0.0
 79
     0
146
0.0
 60
     3
 61
     5
292
     1
282
     1
141
0.0
142
0.0
 63
   250
361
3F
  0
ENDTAB
  0
TABLE
  2
LTYPE
  5
5
330
0
100
AcDbSymbolTable
 70
     1
  0
LTYPE
  5
14
330
5
100
AcDbSymbolTableRecord
100
AcDbLinetypeTableRecord
  2
ByBlock
 70
     0
  3

 72
    65
 73
     0
 40
0.0
  0
LTYPE
  5
15
330
5
100
AcDbSymbolTableRecord
100
AcDbLinetypeTableRecord
  2
ByLayer
 70
     0
  3

 72
    65
 73
     0
 40
0.0
  0
LTYPE
  5
16
330
5
100
AcDbSymbolTableRecord
100
AcDbLinetypeTableRecord
  2
Continuous
 70
     0
  3
Solid line
 72
    65
 73
     0
 40
0.0
  0
ENDTAB
  0
TABLE
  2
LAYER
  5
2
330
0
100
AcDbSymbolTable
 70
     2
  0
LAYER
  5
10
330
2
100
AcDbSymbolTableRecord
100
AcDbLayerTableRecord
  2
0
 70
     0
 62
     7
  6
Continuous
370
    -3
390
F
347
3E
  0
LAYER
  5
40
330
2
100
AcDbSymbolTableRecord
100
AcDbLayerTableRecord
  2
Layer 1
 70
     0
 62
     7
  6
Continuous
370
    -3
390
F
347
3E
  0
ENDTAB
  0
TABLE
  2
STYLE
  5
3
330
0
100
AcDbSymbolTable
 70
     1
  0
STYLE
  5
11
330
3
100
AcDbSymbolTableRecord
100
AcDbTextStyleTableRecord
  2
Standard
 70
     0
 40
0.0
 41
1.0
 50
0.0
 71
     0
 42
0.2
  3
txt
  4

  0
ENDTAB
  0
TABLE
  2
VIEW
  5
6
330
0
100
AcDbSymbolTable
 70
     0
  0
ENDTAB
  0
TABLE
  2
UCS
  5
7
330
0
100
AcDbSymbolTable
 70
     0
  0
ENDTAB
  0
TABLE
  2
APPID
  5
9
330
0
100
AcDbSymbolTable
 70
     1
  0
APPID
  5
12
330
9
100
AcDbSymbolTableRecord
100
AcDbRegAppTableRecord
  2
ACAD
 70
     0
  0
ENDTAB
  0
TABLE
  2
DIMSTYLE
  5
A
330
0
100
AcDbSymbolTable
 70
     1
100
AcDbDimStyleTable
  0
DIMSTYLE
105
27
330
A
100
AcDbSymbolTableRecord
100
AcDbDimStyleTableRecord
  2
Standard
 70
     0
178
     0
340
11
  0
ENDTAB
  0
TABLE
  2
BLOCK_RECORD
  5
1
330
0
100
AcDbSymbolTable
 70
     2
  0
BLOCK_RECORD
  5
1F
330
1
100
AcDbSymbolTableRecord
100
AcDbBlockTableRecord
  2
*Model_Space
340
22
 70
     0
280
     1
281
     0
  0
BLOCK_RECORD
  5
1B
330
1
100
AcDbSymbolTableRecord
100
AcDbBlockTableRecord
  2
*Paper_Space
340
1E
 70
     0
280
     1
281
     0
  0
BLOCK_RECORD
  5
23
330
1
100
AcDbSymbolTableRecord
100
AcDbBlockTableRecord
  2
*Paper_Space0
340
26
 70
     0
280
     1
281
     0
  0
BLOCK_RECORD
  5
41
330
1
100
AcDbSymbolTableRecord
100
AcDbBlockTableRecord
  2
block 2
340
0
102
{BLKREFS
331
42
102
}
 70
     0
280
     1
281
     0
  0
ENDTAB
  0
ENDSEC
  0
SECTION
  2
BLOCKS
  0
BLOCK
  5
20
330
1F
100
AcDbEntity
  8
0
100
AcDbBlockBegin
  2
*Model_Space
 70
     0
 10
0.0
 20
0.0
 30
0.0
  3
*Model_Space
  1

  0
ENDBLK
  5
21
330
1F
100
AcDbEntity
  8
0
100
AcDbBlockEnd
  0
BLOCK
  5
1C
330
1B
100
AcDbEntity
 67
     1
  8
0
100
AcDbBlockBegin
  2
*Paper_Space
 70
     0
 10
0.0
 20
0.0
 30
0.0
  3
*Paper_Space
  1

  0
ENDBLK
  5
1D
330
1B
100
AcDbEntity
 67
     1
  8
0
100
AcDbBlockEnd
  0
BLOCK
  5
24
330
23
100
AcDbEntity
  8
0
100
AcDbBlockBegin
  2
*Paper_Space0
 70
     0
 10
0.0
 20
0.0
 30
0.0
  3
*Paper_Space0
  1

  0
ENDBLK
  5
25
330
23
100
AcDbEntity
  8
0
100
AcDbBlockEnd
  0
BLOCK
  5
43
330
41
100
AcDbEntity
  8
0
100
AcDbBlockBegin
  2
block 2
 70
     0
 10
0.0
 20
0.0
 30
0.0
  3
block 2
  1

  0
SPLINE
  5
45
330
41
100
AcDbEntity
  8
Layer 1
370
     0
100
AcDbSpline
210
0.0
220
0.0
230
1.0
 70
    11
 71
     3
 72
   695
 73
   691
 74
     0
 42
0.0000000001
 43
0.0000000001
 12
1.0
 22
0.0
 32
0.0
 13
1.0
 23
0.0
 33
0.0
 40
0.0
 40
0.0
 40
0.0
 40
0.0
 40
1.0
 40
1.0
 40
1.0
 40
2.0
 40
2.0
 40
2.0
 40
3.0
 40
3.0
 40
3.0
 40
4.0
 40
4.0
 40
4.0
 40
5.0
 40
5.0
 40
5.0
 40
6.0
 40
6.0
 40
6.0
 40
7.0
 40
7.0
 40
7.0
 40
8.0
 40
8.0
 40
8.0
 40
9.0
 40
9.0
 40
9.0
 40
10.0
 40
10.0
 40
10.0
 40
11.0
 40
11.0
 40
11.0
 40
12.0
 40
12.0
 40
12.0
 40
13.0
 40
13.0
 40
13.0
 40
14.0
 40
14.0
 40
14.0
 40
15.0
 40
15.0
 40
15.0
 40
16.0
 40
16.0
 40
16.0
 40
17.0
 40
17.0
 40
17.0
 40
18.0
 40
18.0
 40
18.0
 40
19.0
 40
19.0
 40
19.0
 40
20.0
 40
20.0
 40
20.0
 40
21.0
 40
21.0
 40
21.0
 40
22.0
 40
22.0
 40
22.0
 40
23.0
 40
23.0
 40
23.0
 40
24.0
 40
24.0
 40
24.0
 40
25.0
 40
25.0
 40
25.0
 40
26.0
 40
26.0
 40
26.0
 40
27.0
 40
27.0
 40
27.0
 40
28.0
 40
28.0
 40
28.0
 40
29.0
 40
29.0
 40
29.0
 40
30.0
 40
30.0
 40
30.0
 40
31.0
 40
31.0
 40
31.0
 40
32.0
 40
32.0
 40
32.0
 40
33.0
 40
33.0
 40
33.0
 40
34.0
 40
34.0
 40
34.0
 40
35.0
 40
35.0
 40
35.0
 40
36.0
 40
36.0
 40
36.0
 40
37.0
 40
37.0
 40
37.0
 40
38.0
 40
38.0
 40
38.0
 40
39.0
 40
39.0
 40
39.0
 40
40.0
 40
40.0
 40
40.0
 40
41.0
 40
41.0
 40
41.0
 40
42.0
 40
42.0
 40
42.0
 40
43.0
 40
43.0
 40
43.0
 40
44.0
 40
44.0
 40
44.0
 40
45.0
 40
45.0
 40
45.0
 40
46.0
 40
46.0
 40
46.0
 40
47.0
 40
47.0
 40
47.0
 40
48.0
 40
48.0
 40
48.0
 40
49.0
 40
49.0
 40
49.0
 40
50.0
 40
50.0
 40
50.0
 40
51.0
 40
51.0
 40
51.0
 40
52.0
 40
52.0
 40
52.0
 40
53.0
 40
53.0
 40
53.0
 40
54.0
 40
54.0
 40
54.0
 40
55.0
 40
55.0
 40
55.0
 40
56.0
 40
56.0
 40
56.0
 40
57.0
 40
57.0
 40
57.0
 40
58.0
 40
58.0
 40
58.0
 40
59.0
 40
59.0
 40
59.0
 40
60.0
 40
60.0
 40
60.0
 40
61.0
 40
61.0
 40
61.0
 40
62.0
 40
62.0
 40
62.0
 40
63.0
 40
63.0
 40
63.0
 40
64.0
 40
64.0
 40
64.0
 40
65.0
 40
65.0
 40
65.0
 40
66.0
 40
66.0
 40
66.0
 40
67.0
 40
67.0
 40
67.0
 40
68.0
 40
68.0
 40
68.0
 40
69.0
 40
69.0
 40
69.0
 40
70.0
 40
70.0
 40
70.0
 40
71.0
 40
71.0
 40
71.0
 40
72.0
 40
72.0
 40
72.0
 40
73.0
 40
73.0
 40
73.0
 40
74.0
 40
74.0
 40
74.0
 40
75.0
 40
75.0
 40
75.0
 40
76.0
 40
76.0
 40
76.0
 40
77.0
 40
77.0
 40
77.0
 40
78.0
 40
78.0
 40
78.0
 40
79.0
 40
79.0
 40
79.0
 40
80.0
 40
80.0
 40
80.0
 40
81.0
 40
81.0
 40
81.0
 40
82.0
 40
82.0
 40
82.0
 40
83.0
 40
83.0
 40
83.0
 40
84.0
 40
84.0
 40
84.0
 40
85.0
 40
85.0
 40
85.0
 40
86.0
 40
86.0
 40
86.0
 40
87.0
 40
87.0
 40
87.0
 40
88.0
 40
88.0
 40
88.0
 40
89.0
 40
89.0
 40
89.0
 40
90.0
 40
90.0
 40
90.0
 40
91.0
 40
91.0
 40
91.0
 40
92.0
 40
92.0
 40
92.0
 40
93.0
 40
93.0
 40
93.0
 40
94.0
 40
94.0
 40
94.0
 40
95.0
 40
95.0
 40
95.0
 40
96.0
 40
96.0
 40
96.0
 40
97.0
 40
97.0
 40
97.0
 40
98.0
 40
98.0
 40
98.0
 40
99.0
 40
99.0
 40
99.0
 40
100.0
 40
100.0
 40
100.0
 40
101.0
 40
101.0
 40
101.0
 40
102.0
 40
102.0
 40
102.0
 40
103.0
 40
103.0
 40
103.0
 40
104.0
 40
104.0
 40
104.0
 40
105.0
 40
105.0
 40
105.0
 40
106.0
 40
106.0
 40
106.0
 40
107.0
 40
107.0
 40
107.0
 40
108.0
 40
108.0
 40
108.0
 40
109.0
 40
109.0
 40
109.0
 40
110.0
 40
110.0
 40
110.0
 40
111.0
 40
111.0
 40
111.0
 40
112.0
 40
112.0
 40
112.0
 40
113.0
 40
113.0
 40
113.0
 40
114.0
 40
114.0
 40
114.0
 40
115.0
 40
115.0
 40
115.0
 40
116.0
 40
116.0
 40
116.0
 40
117.0
 40
117.0
 40
117.0
 40
118.0
 40
118.0
 40
118.0
 40
119.0
 40
119.0
 40
119.0
 40
120.0
 40
120.0
 40
120.0
 40
121.0
 40
121.0
 40
121.0
 40
122.0
 40
122.0
 40
122.0
 40
123.0
 40
123.0
 40
123.0
 40
124.0
 40
124.0
 40
124.0
 40
125.0
 40
125.0
 40
125.0
 40
126.0
 40
126.0
 40
126.0
 40
127.0
 40
127.0
 40
127.0
 40
128.0
 40
128.0
 40
128.0
 40
129.0
 40
129.0
 40
129.0
 40
130.0
 40
130.0
 40
130.0
 40
131.0
 40
131.0
 40
131.0
 40
132.0
 40
132.0
 40
132.0
 40
133.0
 40
133.0
 40
133.0
 40
134.0
 40
134.0
 40
134.0
 40
135.0
 40
135.0
 40
135.0
 40
136.0
 40
136.0
 40
136.0
 40
137.0
 40
137.0
 40
137.0
 40
138.0
 40
138.0
 40
138.0
 40
139.0
 40
139.0
 40
139.0
 40
140.0
 40
140.0
 40
140.0
 40
141.0
 40
141.0
 40
141.0
 40
142.0
 40
142.0
 40
142.0
 40
143.0
 40
143.0
 40
143.0
 40
144.0
 40
144.0
 40
144.0
 40
145.0
 40
145.0
 40
145.0
 40
146.0
 40
146.0
 40
146.0
 40
147.0
 40
147.0
 40
147.0
 40
148.0
 40
148.0
 40
148.0
 40
149.0
 40
149.0
 40
149.0
 40
150.0
 40
150.0
 40
150.0
 40
151.0
 40
151.0
 40
151.0
 40
152.0
 40
152.0
 40
152.0
 40
153.0
 40
153.0
 40
153.0
 40
154.0
 40
154.0
 40
154.0
 40
155.0
 40
155.0
 40
155.0
 40
156.0
 40
156.0
 40
156.0
 40
157.0
 40
157.0
 40
157.0
 40
158.0
 40
158.0
 40
158.0
 40
159.0
 40
159.0
 40
159.0
 40
160.0
 40
160.0
 40
160.0
 40
161.0
 40
161.0
 40
161.0
 40
162.0
 40
162.0
 40
162.0
 40
163.0
 40
163.0
 40
163.0
 40
164.0
 40
164.0
 40
164.0
 40
165.0
 40
165.0
 40
165.0
 40
166.0
 40
166.0
 40
166.0
 40
167.0
 40
167.0
 40
167.0
 40
168.0
 40
168.0
 40
168.0
 40
169.0
 40
169.0
 40
169.0
 40
170.0
 40
170.0
 40
170.0
 40
171.0
 40
171.0
 40
171.0
 40
172.0
 40
172.0
 40
172.0
 40
173.0
 40
173.0
 40
173.0
 40
174.0
 40
174.0
 40
174.0
 40
175.0
 40
175.0
 40
175.0
 40
176.0
 40
176.0
 40
176.0
 40
177.0
 40
177.0
 40
177.0
 40
178.0
 40
178.0
 40
178.0
 40
179.0
 40
179.0
 40
179.0
 40
180.0
 40
180.0
 40
180.0
 40
181.0
 40
181.0
 40
181.0
 40
182.0
 40
182.0
 40
182.0
 40
183.0
 40
183.0
 40
183.0
 40
184.0
 40
184.0
 40
184.0
 40
185.0
 40
185.0
 40
185.0
 40
186.0
 40
186.0
 40
186.0
 40
187.0
 40
187.0
 40
187.0
 40
188.0
 40
188.0
 40
188.0
 40
189.0
 40
189.0
 40
189.0
 40
190.0
 40
190.0
 40
190.0
 40
191.0
 40
191.0
 40
191.0
 40
192.0
 40
192.0
 40
192.0
 40
193.0
 40
193.0
 40
193.0
 40
194.0
 40
194.0
 40
194.0
 40
195.0
 40
195.0
 40
195.0
 40
196.0
 40
196.0
 40
196.0
 40
197.0
 40
197.0
 40
197.0
 40
198.0
 40
198.0
 40
198.0
 40
199.0
 40
199.0
 40
199.0
 40
200.0
 40
200.0
 40
200.0
 40
201.0
 40
201.0
 40
201.0
 40
202.0
 40
202.0
 40
202.0
 40
203.0
 40
203.0
 40
203.0
 40
204.0
 40
204.0
 40
204.0
 40
205.0
 40
205.0
 40
205.0
 40
206.0
 40
206.0
 40
206.0
 40
207.0
 40
207.0
 40
207.0
 40
208.0
 40
208.0
 40
208.0
 40
209.0
 40
209.0
 40
209.0
 40
210.0
 40
210.0
 40
210.0
 40
211.0
 40
211.0
 40
211.0
 40
212.0
 40
212.0
 40
212.0
 40
213.0
 40
213.0
 40
213.0
 40
214.0
 40
214.0
 40
214.0
 40
215.0
 40
215.0
 40
215.0
 40
216.0
 40
216.0
 40
216.0
 40
217.0
 40
217.0
 40
217.0
 40
218.0
 40
218.0
 40
218.0
 40
219.0
 40
219.0
 40
219.0
 40
220.0
 40
220.0
 40
220.0
 40
221.0
 40
221.0
 40
221.0
 40
222.0
 40
222.0
 40
222.0
 40
223.0
 40
223.0
 40
223.0
 40
224.0
 40
224.0
 40
224.0
 40
225.0
 40
225.0
 40
225.0
 40
226.0
 40
226.0
 40
226.0
 40
227.0
 40
227.0
 40
227.0
 40
228.0
 40
228.0
 40
228.0
 40
229.0
 40
229.0
 40
229.0
 40
230.0
 40
230.0
 40
230.0
 40
230.0
 10
43.41138982747181
 20
-42.62201079256715
 30
0.0
 10
43.41395211723896
 20
-42.38925152884497
 30
0.0
 10
43.43466575384403
 20
-42.11131845057243
 30
0.0
 10
43.0996086860567
 20
-42.17210285404031
 30
0.0
 10
42.98090361474306
 20
-42.19363470082312
 30
0.0
 10
42.83289369995801
 20
-42.43507129879879
 30
0.0
 10
42.8182520441457
 20
-42.58760290140822
 30
0.0
 10
42.7165355999437
 20
-43.64783103699386
 30
0.0
 10
42.72661250423806
 20
-43.64998422167214
 30
0.0
 10
41.6815643206343
 20
-43.6072004421147
 30
0.0
 10
41.58103212800535
 20
-43.6030663275324
 30
0.0
 10
41.48159805956233
 20
-43.5724911051008
 30
0.0
 10
41.34874656491238
 20
-43.54818165008301
 30
0.0
 10
41.34874656491238
 20
-43.3088121093985
 30
0.0
 10
41.36952479705779
 20
-43.0815649984527
 30
0.0
 10
41.34452632294295
 20
-42.85948553073478
 30
0.0
 10
41.28837126653337
 20
-42.36042038600278
 30
0.0
 10
41.40167184430453
 20
-42.05266569993606
 30
0.0
 10
41.99879301928546
 20
-42.11424678173489
 30
0.0
 10
42.21068792347511
 20
-42.13610160621945
 30
0.0
 10
42.43375785614504
 20
-42.04975890062038
 30
0.0
 10
42.65721536205705
 20
-42.01190591397619
 30
0.0
 10
42.65721536205705
 20
-41.83317005383208
 30
0.0
 10
42.65721536205705
 20
-41.68285623144126
 30
0.0
 10
42.65721536205705
 20
-41.52347750155489
 30
0.0
 10
42.45468681121793
 20
-41.47739934943968
 30
0.0
 10
42.27472363580719
 20
-41.43644577685878
 30
0.0
 10
42.10350239019027
 20
-41.39747313418189
 30
0.0
 10
42.08843009744231
 20
-41.13444009388306
 30
0.0
 10
42.07520954351766
 20
-40.90394167407306
 30
0.0
 10
42.06095546094744
 20
-40.65501199341698
 30
0.0
 10
41.77766095282598
 20
-40.65501199341698
 30
0.0
 10
41.56139508373943
 20
-40.65501199341698
 30
0.0
 10
41.3548616093987
 20
-40.65501199341698
 30
0.0
 10
41.3548616093987
 20
-40.4221020067673
 30
0.0
 10
41.3548616093987
 20
-40.22101608966263
 30
0.0
 10
41.3548616093987
 20
-40.01672192738732
 30
0.0
 10
41.59046307689622
 20
-39.98982865075558
 30
0.0
 10
41.78958959594366
 20
-39.96711255239972
 30
0.0
 10
42.04375151536797
 20
-39.93808762293649
 30
0.0
 10
42.04375151536797
 20
-39.4257157968927
 30
0.0
 10
42.04375151536797
 20
-38.94488812638574
 30
0.0
 10
42.04375151536797
 20
-38.4419903129264
 30
0.0
 10
42.28439143501267
 20
-38.41770238975538
 30
0.0
 10
42.46775664221509
 20
-38.39920653336895
 30
0.0
 10
42.6814602215345
 20
-38.37765315473936
 30
0.0
 10
42.7122722942807
 20
-37.9094646782939
 30
0.0
 10
42.74146947851819
 20
-37.46575791164051
 30
0.0
 10
42.77118342707848
 20
-37.01421355275816
 30
0.0
 10
42.99750466861261
 20
-36.98238948321317
 30
0.0
 10
43.18295846495296
 20
-36.95633594860597
 30
0.0
 10
43.4040044040253
 20
-36.92526549369838
 30
0.0
 10
43.4040044040253
 20
-35.76069402860323
 30
0.0
 10
43.4040044040253
 20
-34.60363717803529
 30
0.0
 10
43.4040044040253
 20
-33.39335360222024
 30
0.0
 10
42.81590507284637
 20
-33.52827215416134
 30
0.0
 10
42.6984919123397
 20
-33.23397487233387
 30
0.0
 10
42.72889487999703
 20
-32.76363321121013
 30
0.0
 10
42.74629261219754
 20
-32.4943559353443
 30
0.0
 10
42.69670476905673
 20
-32.22075075827511
 30
0.0
 10
42.6765724923148
 20
-31.93945871190446
 30
0.0
 10
42.45337336856418
 20
-31.90571830799579
 30
0.0
 10
42.26990050212784
 20
-31.87796375749275
 30
0.0
 10
42.04301943257735
 20
-31.84366352556773
 30
0.0
 10
42.08752575987742
 20
-31.50731454697343
 30
0.0
 10
41.87235801497679
 20
-31.09894154089063
 30
0.0
 10
42.45152162974085
 20
-31.04933216590303
 30
0.0
 10
42.498697906042
 20
-31.04530571055465
 30
0.0
 10
42.56060196554257
 20
-30.92123920939209
 30
0.0
 10
42.57229375834564
 20
-30.84620072335399
 30
0.0
 10
42.61757523212989
 20
-30.55539160070534
 30
0.0
 10
42.70482227529385
 20
-30.25342898142319
 30
0.0
 10
42.66496682689886
 20
-29.97136178856836
 30
0.0
 10
42.6116755061114
 20
-29.59427455586098
 30
0.0
 10
42.78067897150969
 20
-29.06140441167996
 30
0.0
 10
42.1354125871224
 20
-28.96384361390704
 30
0.0
 10
42.06504651183617
 20
-28.95320688159633
 30
0.0
 10
41.98843620098292
 20
-28.7454245601422
 30
0.0
 10
41.97734729988978
 20
-28.62340358442401
 30
0.0
 10
41.93510181650191
 20
-28.1589185856252
 30
0.0
 10
42.32086638346276
 20
-28.16410776069986
 30
0.0
 10
42.64476995461659
 20
-28.10304344322381
 30
0.0
 10
42.64476995461659
 20
-27.17721709525648
 30
0.0
 10
42.64476995461659
 20
-26.27989891242959
 30
0.0
 10
42.64476995461659
 20
-25.36234079362686
 30
0.0
 10
42.43440381154852
 20
-25.34201473026389
 30
0.0
 10
42.25345017118577
 20
-25.32450933882946
 30
0.0
 10
42.04605542297373
 20
-25.30446318947467
 30
0.0
 10
42.04605542297373
 20
-24.30297393191254
 30
0.0
 10
42.01767644891399
 20
-23.32964832994233
 30
0.0
 10
42.05740270622827
 20
-22.3591003362071
 30
0.0
 10
42.07895608485786
 20
-21.83256055498023
 30
0.0
 10
41.98468965964272
 20
-21.5071497545516
 30
0.0
 10
41.3891833731705
 20
-21.60499046633269
 30
0.0
 10
41.36556293724976
 20
-21.53750965851536
 30
0.0
 10
41.34472010956399
 20
-21.5052764838815
 30
0.0
 10
41.34433253632191
 20
-21.4728279907798
 30
0.0
 10
41.33810983260167
 20
-20.95037926044166
 30
0.0
 10
41.3090203075981
 20
-20.42646636452229
 30
0.0
 10
41.33879885169872
 20
-19.9059555003946
 30
0.0
 10
41.36052448510258
 20
-19.52617678683938
 30
0.0
 10
41.201662519539
 20
-19.40493095760537
 30
0.0
 10
40.85898317799055
 20
-19.41526624406112
 30
0.0
 10
40.76249897255677
 20
-19.41817304337679
 30
0.0
 10
40.66515349325168
 20
-19.39181806291463
 30
0.0
 10
40.53098855594799
 20
-19.37390356639133
 30
0.0
 10
40.53098855594799
 20
-18.91297132231169
 30
0.0
 10
40.53184982981929
 20
-18.47968596950117
 30
0.0
 10
40.53081630117372
 20
-18.04640061669066
 30
0.0
 10
40.52902915789075
 20
-17.28794131376612
 30
0.0
 10
40.52853392541474
 20
-17.28794131376612
 30
0.0
 10
39.79455633228226
 20
-17.15104183192101
 30
0.0
 10
39.76932100785281
 20
-16.95256126827705
 30
0.0
 10
39.74391342864909
 20
-16.75278879382613
 30
0.0
 10
39.71676176985597
 20
-16.53917134189386
 30
0.0
 10
39.51709695463896
 20
-16.51279482958491
 30
0.0
 10
39.34947152743477
 20
-16.4906385592454
 30
0.0
 10
39.1226981171182
 20
-16.46064469667694
 30
0.0
 10
39.1226981171182
 20
-15.99150881897304
 30
0.0
 10
39.1226981171182
 20
-15.52975836471565
 30
0.0
 10
39.1226981171182
 20
-15.05007188208818
 30
0.0
 10
38.86302404491749
 20
-15.02576242707038
 30
0.0
 10
38.66223957366778
 20
-15.00696512482899
 30
0.0
 10
38.44313150080588
 20
-14.98642374299819
 30
0.0
 10
38.42196569541838
 20
-14.7363744063094
 30
0.0
 10
38.40217792822498
 20
-14.50266774132876
 30
0.0
 10
38.38124897315208
 20
-14.25550367210887
 30
0.0
 10
38.1252999104448
 20
-14.23412254825354
 30
0.0
 10
37.90393099367072
 20
-14.21564822371388
 30
0.0
 10
37.66445379375229
 20
-14.19564513805265
 30
0.0
 10
37.63308189298974
 20
-13.99985605525655
 30
0.0
 10
37.60392777244581
 20
-13.81786888624822
 30
0.0
 10
37.5727496583043
 20
-13.62317792763804
 30
0.0
 10
37.33101161447367
 20
-13.60061255220966
 30
0.0
 10
37.11140830913578
 20
-13.58011423407242
 30
0.0
 10
36.87290004232258
 20
-13.55785030449899
 30
0.0
 10
36.85134666369298
 20
-13.30431280863139
 30
0.0
 10
36.83145123726566
 20
-13.0701755067151
 30
0.0
 10
36.811491215298
 20
-12.83549990862923
 30
0.0
 10
36.59449326342082
 20
-12.81730549809776
 30
0.0
 10
36.42495150185297
 20
-12.80307294737432
 30
0.0
 10
36.2316170495901
 20
-12.78688099859365
 30
0.0
 10
36.2316170495901
 20
-12.54832966808688
 30
0.0
 10
36.2316170495901
 20
-12.33438923845286
 30
0.0
 10
36.2316170495901
 20
-12.12669304438586
 30
0.0
 10
36.8139889095248
 20
-12.02217746010209
 30
0.0
 10
36.8168741769937
 20
-12.02226358748923
 30
0.0
 10
36.83274314807263
 20
-11.43903045368321
 30
0.0
 10
36.84019316705948
 20
-11.1659635727836
 30
0.0
 10
36.8340350588796
 20
-10.89250911864189
 30
0.0
 10
36.8340350588796
 20
-10.57674458557196
 30
0.0
 10
37.48059335407386
 20
-10.71614176164388
 30
0.0
 10
37.58937224402063
 20
-10.40209977631658
 30
0.0
 10
37.55397388790968
 20
-9.9184083701875
 30
0.0
 10
37.54523195811586
 20
-9.798928152389678
 30
0.0
 10
37.63226368281199
 20
-9.485123017376983
 30
0.0
 10
37.72370943609859
 20
-9.171920774074207
 30
0.0
 10
37.90024904787086
 20
-9.134929061301337
 30
0.0
 10
38.08062132837047
 20
-9.098023475915598
 30
0.0
 10
38.28995394279296
 20
-9.055498078519546
 30
0.0
 10
38.28995394279296
 20
-8.595663958625824
 30
0.0
 10
38.28995394279296
 20
-8.154950118675238
 30
0.0
 10
38.28995394279296
 20
-7.717702906056686
 30
0.0
 10
38.03589968260257
 20
-7.692209199465837
 30
0.0
 10
37.81857875302366
 20
-7.670397438674849
 30
0.0
 10
37.61292808440102
 20
-7.649769929456916
 30
0.0
 10
37.58674535871312
 20
-7.399569869840646
 30
0.0
 10
37.56562261701919
 20
-7.197708806251788
 30
0.0
 10
37.54428455685742
 20
-6.993780685371781
 30
0.0
 10
37.28786179352092
 20
-6.973411558315242
 30
0.0
 10
37.08087615039775
 20
-6.95693969552639
 30
0.0
 10
36.8738689754278
 20
-6.940489364584322
 30
0.0
 10
36.85515780057354
 20
-6.706287467127682
 30
0.0
 10
36.83642509387249
 20
-6.472064037824259
 30
0.0
 10
36.81586218019491
 20
-6.214736936922878
 30
0.0
 10
36.57539451532447
 20
-6.214736936922878
 30
0.0
 10
36.36166940415828
 20
-6.214736936922878
 30
0.0
 10
36.14841799362132
 20
-6.214736936922878
 30
0.0
 10
36.14884863055698
 20
-6.208858742751171
 30
0.0
 10
36.14930079933941
 20
-6.202765230111635
 30
0.0
 10
36.14975296812185
 20
-6.196887035939928
 30
0.0
 10
36.15029126429143
 20
-6.196305676076792
 30
0.0
 10
36.13401318812362
 20
-6.214736936922878
 30
0.0
 10
36.13401318812362
 20
-6.214736936922878
 30
0.0
 10
36.10134937655409
 20
-6.033288064084126
 30
0.0
 10
36.06870709683135
 20
-5.851839191245374
 30
0.0
 10
36.02872245735567
 20
-5.629716659833891
 30
0.0
 10
35.37230257633487
 20
-5.629716659833891
 30
0.0
 10
34.73493837971687
 20
-5.629716659833891
 30
0.0
 10
34.12894608386143
 20
-5.629716659833891
 30
0.0
 10
34.06273565500428
 20
-5.872638955237569
 30
0.0
 10
34.01932745189013
 20
-6.031910025890026
 30
0.0
 10
33.97792171052679
 20
-6.192559134736583
 30
0.0
 10
33.97994570412438
 20
-6.193937172930682
 30
0.0
 10
33.96883527118444
 20
-6.184872265435119
 30
0.0
 10
33.96883527118444
 20
-6.184872265435119
 30
0.0
 10
33.96911518519262
 20
-6.187800596597581
 30
0.0
 10
33.96941663104758
 20
-6.190750459606827
 30
0.0
 10
33.96969654505575
 20
-6.193657258922507
 30
0.0
 10
33.77039777123405
 20
-6.217945182093517
 30
0.0
 10
33.57353209609881
 20
-6.257972885262764
 30
0.0
 10
33.37550370123729
 20
-6.264927671773612
 30
0.0
 10
32.7711908894309
 20
-6.286158072701464
 30
0.0
 10
32.16644744068886
 20
-6.295330639430942
 30
0.0
 10
31.56181165118073
 20
-6.306828645612963
 30
0.0
 10
31.50684084634421
 20
-6.307883706105321
 30
0.0
 10
31.52563814858561
 20
-6.20724385424246
 30
0.0
 10
31.48220841362468
 20
-6.214736936922878
 30
0.0
 10
31.35588106854992
 20
-5.991796195333649
 30
0.0
 10
30.30103589465999
 20
-4.838830395654442
 30
0.0
 10
30.15201398307615
 20
-4.806532625480225
 30
0.0
 10
28.77354515204055
 20
-4.806532625480225
 30
0.0
 10
27.40696190042908
 20
-4.806532625480225
 30
0.0
 10
26.02657673502982
 20
-4.806532625480225
 30
0.0
 10
26.00050166857583
 20
-5.03970099429129
 30
0.0
 10
25.97813007976849
 20
-5.239861041984306
 30
0.0
 10
25.95283015979869
 20
-5.466246879058786
 30
0.0
 10
25.48091667385981
 20
-5.466246879058786
 30
0.0
 10
25.03628403779475
 20
-5.466246879058786
 30
0.0
 10
24.56387531937986
 20
-5.466246879058786
 30
0.0
 10
24.52935976898702
 20
-5.722432792080677
 30
0.0
 10
24.49598540647366
 20
-5.970221284857272
 30
0.0
 10
24.45466579249745
 20
-6.276834783044507
 30
0.0
 10
23.77070667944144
 20
-6.276834783044507
 30
0.0
 10
23.1149758175177
 20
-6.276834783044507
 30
0.0
 10
22.45194565953458
 20
-6.276834783044507
 30
0.0
 10
22.39996778140088
 20
-6.536659578172693
 30
0.0
 10
21.62525193415532
 20
-6.623153006699247
 30
0.0
 10
21.5861931640913
 20
-6.818511452559695
 30
0.0
 10
21.27850307356492
 20
-6.843466862980974
 30
0.0
 10
20.46849652944234
 20
-7.328945412393025
 30
0.0
 10
20.02541418634564
 20
-7.699465431831644
 30
0.0
 10
20.01441141263963
 20
-7.698647221653897
 30
0.0
 10
20.00480820897449
 20
-7.697893607016499
 30
0.0
 10
19.99343939387317
 20
-7.697053864991969
 30
0.0
 10
19.77058477967107
 20
-7.680603534049902
 30
0.0
 10
19.54170124836978
 20
-7.733119708353179
 30
0.0
 10
19.32050458636996
 20
-7.708960976262865
 30
0.0
 10
18.80098418719428
 20
-7.652224559990156
 30
0.0
 10
18.58228521942127
 20
-8.012839929908683
 30
0.0
 10
18.62726524735056
 20
-8.477970884110976
 30
0.0
 10
18.62334645123609
 20
-8.50848151100222
 30
0.0
 10
18.622463645518
 20
-8.545430160081525
 30
0.0
 10
18.62117173471103
 20
-8.581496003442734
 30
0.0
 10
18.38063947430024
 20
-8.543729144185683
 30
0.0
 10
18.11246032262032
 20
-8.489877995381871
 30
0.0
 10
17.97502254460564
 20
-8.50395982317783
 30
0.0
 10
17.94416740816587
 20
-8.761760624708431
 30
0.0
 10
17.92024552639016
 20
-8.961490035465792
 30
0.0
 10
17.89759402357465
 20
-9.150668841299574
 30
0.0
 10
17.64265695766616
 20
-9.180490449093767
 30
0.0
 10
17.43967623804459
 20
-9.20426160794199
 30
0.0
 10
17.24022674129541
 20
-9.227602129854558
 30
0.0
 10
17.24022674129541
 20
-9.456334938228364
 30
0.0
 10
17.24022674129541
 20
-9.652468530572994
 30
0.0
 10
17.24022674129541
 20
-9.843154565681573
 30
0.0
 10
17.50030991858499
 20
-9.870995243571748
 30
0.0
 10
17.71681263798616
 20
-9.894163510710053
 30
0.0
 10
17.78026699045511
 20
-9.90094604244664
 30
0.0
 10
17.97504407645242
 20
-10.2037699356001
 30
0.0
 10
18.08782788990079
 20
-10.55060492357763
 30
0.0
 10
18.22145453103492
 20
-10.55885162089544
 30
0.0
 10
19.04758842839783
 20
-10.60973137484323
 30
0.0
 10
19.87843780020617
 20
-10.58440992302664
 30
0.0
 10
20.70982546818409
 20
-10.58440992302664
 30
0.0
 10
20.74537454722251
 20
-10.32101084133251
 30
0.0
 10
20.77250467416885
 20
-10.12003258346175
 30
0.0
 10
20.79896731386493
 20
-9.924049714044596
 30
0.0
 10
21.30692511131824
 20
-9.924049714044596
 30
0.0
 10
21.78097025008861
 20
-9.924049714044596
 30
0.0
 10
22.32105356294187
 20
-9.924049714044596
 30
0.0
 10
22.32105356294187
 20
-10.90480380315488
 30
0.0
 10
22.32105356294187
 20
-11.83672366376174
 30
0.0
 10
22.32105356294187
 20
-12.7776653681706
 30
0.0
 10
22.58906045984753
 20
-12.7989603646388
 30
0.0
 10
22.79098611897673
 20
-12.81502312233878
 30
0.0
 10
23.04015264994743
 20
-12.83483242137897
 30
0.0
 10
23.04015264994743
 20
-13.55673064846629
 30
0.0
 10
23.04015264994743
 20
-14.2548361848586
 30
0.0
 10
23.04015264994743
 20
-14.97328931646067
 30
0.0
 10
23.27721828302618
 20
-14.99133300406467
 30
0.0
 10
23.46142323225314
 20
-15.00535023632028
 30
0.0
 10
23.66664326394011
 20
-15.0209823570846
 30
0.0
 10
23.69078046418364
 20
-15.51487985858873
 30
0.0
 10
23.71336737145881
 20
-15.97682409946717
 30
0.0
 10
23.73614806535503
 20
-16.44275173200042
 30
0.0
 10
24.01819372636307
 20
-16.47024790034207
 30
0.0
 10
24.25469953142548
 20
-16.49328697639968
 30
0.0
 10
24.52929517344667
 20
-16.5200725937975
 30
0.0
 10
24.52929517344667
 20
-17.48041449215767
 30
0.0
 10
24.52929517344667
 20
-18.41074099610261
 30
0.0
 10
24.52929517344667
 20
-19.33277773903616
 30
0.0
 10
25.24669324455638
 20
-19.46028933568397
 30
0.0
 10
25.24589656622542
 20
-19.46024627199041
 30
0.0
 10
25.2000767962716
 20
-20.19650624088186
 30
0.0
 10
25.18640407356451
 20
-20.41626026914724
 30
0.0
 10
25.17854494948878
 20
-20.63638033880792
 30
0.0
 10
25.16653017898398
 20
-20.88795843661829
 30
0.0
 10
24.89408772164106
 20
-20.87140044644231
 30
0.0
 10
24.67564713602944
 20
-20.85811529697731
 30
0.0
 10
24.44314625446864
 20
-20.84396887364101
 30
0.0
 10
24.41575774536091
 20
-20.5842948014403
 30
0.0
 10
24.39295551961791
 20
-20.36826578266835
 30
0.0
 10
24.37099303589944
 20
-20.16011741981891
 30
0.0
 10
23.74880879126332
 20
-20.11350097153413
 30
0.0
 10
23.74880879126332
 20
-20.11350097153413
 30
0.0
 10
23.62788593973105
 20
-19.46153818279738
 30
0.0
 10
23.43683386322716
 20
-19.43406354630251
 30
0.0
 10
23.23871934097852
 20
-19.40555538116207
 30
0.0
 10
23.03070016920977
 20
-19.37564764598074
 30
0.0
 10
23.0396789493182
 20
-19.02553981729223
 30
0.0
 10
23.00809173008782
 20
-18.74943694599624
 30
0.0
 10
22.57086604931605
 20
-18.76310966870332
 30
0.0
 10
22.48191799025626
 20
-18.7658872769383
 30
0.0
 10
22.30316059826536
 20
-18.57302652530466
 30
0.0
 10
22.30890960135637
 20
-18.47912614148482
 30
0.0
 10
22.33851589068273
 20
-17.9957361812107
 30
0.0
 10
22.02983533520435
 20
-17.98873833100629
 30
0.0
 10
21.69983825141098
 20
-18.0040044103753
 30
0.0
 10
21.41118231344061
 20
-18.01737568722743
 30
0.0
 10
21.12336611749477
 20
-18.04883371537711
 30
0.0
 10
20.8374662559126
 20
-18.07210964174934
 30
0.0
 10
20.80891502707859
 20
-18.29978738963078
 30
0.0
 10
20.78557450516602
 20
-18.48590867322141
 30
0.0
 10
20.75988701195413
 20
-18.69067653612594
 30
0.0
 10
20.54493458552132
 20
-18.72588110561584
 30
0.0
 10
20.34649708557093
 20
-18.7583726624111
 30
0.0
 10
20.15283965560632
 20
-18.7900675408754
 30
0.0
 10
20.1166661530112
 20
-19.0100368876086
 30
0.0
 10
20.08650003566848
 20
-19.19342362665781
 30
0.0
 10
20.05461137058314
 20
-19.38723177954989
 30
0.0
 10
19.55113219726066
 20
-19.38723177954989
 30
0.0
 10
19.07616118907862
 20
-19.38723177954989
 30
0.0
 10
18.59970448346856
 20
-19.38723177954989
 30
0.0
 10
18.57718217173374
 20
-19.15481702537623
 30
0.0
 10
18.55903082489584
 20
-18.96740383097864
 30
0.0
 10
18.53999667233983
 20
-18.7709041972387
 30
0.0
 10
18.36261731854303
 20
-18.72473991773635
 30
0.0
 10
18.20078395812342
 20
-18.68262362542917
 30
0.0
 10
17.9987506397603
 20
-18.63002132373876
 30
0.0
 10
18.20885840066697
 20
-17.87782778822802
 30
0.0
 10
17.70329063820656
 20
-17.87614830417897
 30
0.0
 10
17.21234299971167
 20
-17.92442270466603
 30
0.0
 10
17.18019595246493
 20
-17.66179876945608
 30
0.0
 10
17.15547739235827
 20
-17.45978698293974
 30
0.0
 10
17.12933773036393
 20
-17.24629872208817
 30
0.0
 10
16.86367780475761
 20
-17.21919012698861
 30
0.0
 10
16.63096160472898
 20
-17.19544049998716
 30
0.0
 10
16.34611680363917
 20
-17.16639403867715
 30
0.0
 10
16.34611680363917
 20
-16.68715972483212
 30
0.0
 10
16.34611680363917
 20
-16.24119211426652
 30
0.0
 10
16.34611680363917
 20
-15.7482850777144
 30
0.0
 10
16.07193026670684
 20
-15.7482850777144
 30
0.0
 10
15.8523915569093
 20
-15.7482850777144
 30
0.0
 10
15.63375718467663
 20
-15.7482850777144
 30
0.0
 10
15.63395097129768
 20
-15.74421555867245
 30
0.0
 10
15.63403709868481
 20
-15.7401460396305
 30
0.0
 10
15.63425241715264
 20
-15.73607652058855
 30
0.0
 10
15.62949387901363
 20
-15.73667941229847
 30
0.0
 10
15.62630716568978
 20
-15.73693779445986
 30
0.0
 10
15.62159169124434
 20
-15.737519154323
 30
0.0
 10
15.62159169124434
 20
-15.05132072920158
 30
0.0
 10
15.62159169124434
 20
-14.36512230408016
 30
0.0
 10
15.62159169124434
 20
-13.6715815192058
 30
0.0
 10
15.38052113466398
 20
-13.63316870454527
 30
0.0
 10
15.18165299777794
 20
-13.60147382608097
 30
0.0
 10
14.89047783373398
 20
-13.55507269626401
 30
0.0
 10
14.89047783373398
 20
-12.32439846154564
 30
0.0
 10
14.89047783373398
 20
-11.10890417880915
 30
0.0
 10
14.89047783373398
 20
-9.89345295976622
 30
0.0
 10
14.89491339417124
 20
-9.894357297331098
 30
0.0
 10
14.89857380812431
 20
-9.894486488411795
 30
0.0
 10
14.90305243225514
 20
-9.895433889670239
 30
0.0
 10
14.90363379211828
 20
-9.891493561708984
 30
0.0
 10
14.90417208828785
 20
-9.886541236948938
 30
0.0
 10
14.90475344815098
 20
-9.88249324975377
 30
0.0
 10
15.1495059505312
 20
-9.88249324975377
 30
0.0
 10
15.39425845291142
 20
-9.88249324975377
 30
0.0
 10
15.62958000640077
 20
-9.88249324975377
 30
0.0
 10
15.65804510784764
 20
-9.609254114079892
 30
0.0
 10
15.67908172215445
 20
-9.407242327563555
 30
0.0
 10
15.7016901612764
 20
-9.19015824829925
 30
0.0
 10
15.9246739665592
 20
-9.163674076756392
 30
0.0
 10
16.12136738692018
 20
-9.14031202299704
 30
0.0
 10
16.33281012232739
 20
-9.1151843578015
 30
0.0
 10
16.34560003931638
 20
-8.82370774790258
 30
0.0
 10
16.36207190210523
 20
-8.567629494114604
 30
0.0
 10
16.36644286700214
 20
-8.31135745370558
 30
0.0
 10
16.36990949433417
 20
-8.107127886970614
 30
0.0
 10
16.35914357094277
 20
-7.902639938074254
 30
0.0
 10
16.35440656465055
 20
-7.69828118025859
 30
0.0
 10
16.35817463783754
 20
-7.699573091065559
 30
0.0
 10
16.36095224607252
 20
-7.700175982775477
 30
0.0
 10
16.36476338295308
 20
-7.701489425429228
 30
0.0
 10
16.36459112817882
 20
-7.698001266250413
 30
0.0
 10
16.36454806448525
 20
-7.694470043378032
 30
0.0
 10
16.36439734155777
 20
-7.690981884199217
 30
0.0
 10
16.61649220369093
 20
-7.674639212491063
 30
0.0
 10
16.8688239161387
 20
-7.658275008936126
 30
0.0
 10
17.14148169194944
 20
-7.640597362727438
 30
0.0
 10
17.14148169194944
 20
-6.948111638345438
 30
0.0
 10
17.14148169194944
 20
-6.296471827310431
 30
0.0
 10
17.14148169194944
 20
-5.599636669878303
 30
0.0
 10
16.40737490773627
 20
-5.599636669878303
 30
0.0
 10
15.72339426283347
 20
-5.599636669878303
 30
0.0
 10
14.9880386315069
 20
-5.599636669878303
 30
0.0
 10
15.11055483970109
 20
-6.34041832659415
 30
0.0
 10
14.51304609147808
 20
-6.103847925991399
 30
0.0
 10
14.19316897567263
 20
-6.24423556701533
 30
0.0
 10
14.17299363523713
 20
-6.480956690545559
 30
0.0
 10
14.15423939668931
 20
-6.701098292053024
 30
0.0
 10
14.13397792886668
 20
-6.938874476075611
 30
0.0
 10
13.88987138188995
 20
-6.97263641183106
 30
0.0
 10
13.67461750960218
 20
-7.002393424084906
 30
0.0
 10
13.44607848784942
 20
-7.03398064331529
 30
0.0
 10
13.42745344038229
 20
-7.323390195923059
 30
0.0
 10
13.37239650815864
 20
-7.586789277617192
 30
0.0
 10
13.40195973379144
 20
-7.840305241638014
 30
0.0
 10
13.46808403526145
 20
-8.407281831123006
 30
0.0
 10
13.19387596648235
 20
-8.54937048804278
 30
0.0
 10
12.70428483433478
 20
-8.46022864236194
 30
0.0
 10
12.16945529209653
 20
-8.362840099363284
 30
0.0
 10
11.85422905519617
 20
-8.515328638279154
 30
0.0
 10
11.96593627630539
 20
-9.191062585864127
 30
0.0
 10
11.49074994965552
 20
-9.191062585864127
 30
0.0
 10
11.06405334196055
 20
-9.191062585864127
 30
0.0
 10
10.63216755919092
 20
-9.191062585864127
 30
0.0
 10
10.58886701531068
 20
-9.457820635656379
 30
0.0
 10
10.55622473558794
 20
-9.658798893527141
 30
0.0
 10
10.52317335077633
 20
-9.862404036705406
 30
0.0
 10
10.29502190226565
 20
-9.882277931285941
 30
0.0
 10
10.09169667309557
 20
-9.899998641188196
 30
0.0
 10
9.89429270179075
 20
-9.917202586767662
 30
0.0
 10
9.813698999282687
 20
-10.64500053987347
 30
0.0
 10
9.813698999282687
 20
-10.64500053987347
 30
0.0
 10
9.174978296317366
 20
-10.71179232859375
 30
0.0
 10
9.1508841597674
 20
-10.92149098441156
 30
0.0
 10
9.12614406781395
 20
-11.1367663885461
 30
0.0
 10
9.095418122454879
 20
-11.40401967081436
 30
0.0
 10
8.446792769969466
 20
-11.21428103696423
 30
0.0
 10
8.249948626681002
 20
-11.53889515906189
 30
0.0
 10
8.302206418822886
 20
-12.08632083166809
 30
0.0
 10
8.04858279556815
 20
-12.10432145557852
 30
0.0
 10
7.845559012253021
 20
-12.118747792923
 30
0.0
 10
7.609806821828017
 20
-12.13547803787325
 30
0.0
 10
7.588274975045206
 20
-12.62694244069092
 30
0.0
 10
7.56801350722258
 20
-13.08914506373075
 30
0.0
 10
7.547063020302905
 20
-13.56734584893021
 30
0.0
 10
7.3443837465363
 20
-13.6072012973252
 30
0.0
 10
7.165432567924354
 20
-13.64238433496831
 30
0.0
 10
6.954269746525322
 20
-13.68389773556557
 30
0.0
 10
6.954269746525322
 20
-14.14625108153288
 30
0.0
 10
6.954269746525322
 20
-14.57613440255171
 30
0.0
 10
6.954269746525322
 20
-15.00588853248985
 30
0.0
 10
6.951492138290339
 20
-15.00560861848167
 30
0.0
 10
6.948671466361791
 20
-15.00535023632028
 30
0.0
 10
6.945893858126808
 20
-15.0050703223121
 30
0.0
 10
6.945893858126808
 20
-15.0050703223121
 30
0.0
 10
6.945915389973591
 20
-15.00509185415888
 30
0.0
 10
6.945915389973591
 20
-15.00509185415888
 30
0.0
 10
6.946044581054288
 20
-15.00827856748274
 30
0.0
 10
6.946238367675333
 20
-15.0114652808066
 30
0.0
 10
6.94636755875603
 20
-15.01465199413045
 30
0.0
 10
6.697114900398204
 20
-15.02593468184465
 30
0.0
 10
6.447819178346813
 20
-15.03717430586527
 30
0.0
 10
6.182632953369707
 20
-15.04914601267652
 30
0.0
 10
6.156859332770681
 20
-15.56231451705126
 30
0.0
 10
6.133691065632376
 20
-16.02341901590517
 30
0.0
 10
6.110415139260157
 20
-16.48710733637301
 30
0.0
 10
5.853238761286256
 20
-16.51516333273102
 30
0.0
 10
5.635616385852381
 20
-16.53891295973246
 30
0.0
 10
5.387225001365867
 20
-16.56600002298524
 30
0.0
 10
5.387225001365867
 20
-17.08024511969912
 30
0.0
 10
5.387225001365867
 20
-17.55928564692312
 30
0.0
 10
5.387225001365867
 20
-18.03811085567927
 30
0.0
 10
5.383607651106355
 20
-18.03757255950971
 30
0.0
 10
5.381174552419898
 20
-18.03733570919509
 30
0.0
 10
5.377535670313603
 20
-18.03679741302552
 30
0.0
 10
5.377492606620037
 20
-18.04069467729321
 30
0.0
 10
5.37736341553934
 20
-18.0445919415609
 30
0.0
 10
5.377320351845774
 20
-18.04848920582859
 30
0.0
 10
5.151515874634431
 20
-18.0383261741471
 30
0.0
 10
4.925194633100299
 20
-18.02814161061884
 30
0.0
 10
4.652601452829906
 20
-18.01588998979942
 30
0.0
 10
4.652601452829906
 20
-18.77208844881175
 30
0.0
 10
4.652601452829906
 20
-19.44997558107501
 30
0.0
 10
4.652601452829906
 20
-20.12734594901547
 30
0.0
 10
4.64881184779613
 20
-20.12657080253129
 30
0.0
 10
4.645603602625492
 20
-20.12642007960381
 30
0.0
 10
4.641792465744934
 20
-20.12560186942607
 30
0.0
 10
4.641770933898151
 20
-20.13068338526681
 30
0.0
 10
4.641792465744934
 20
-20.13576490110755
 30
0.0
 10
4.641770933898151
 20
-20.1408464169483
 30
0.0
 10
4.426538593457168
 20
-20.1408464169483
 30
0.0
 10
4.210724893153048
 20
-20.1408464169483
 30
0.0
 10
3.949931164919636
 20
-20.1408464169483
 30
0.0
 10
3.949931164919636
 20
-21.41966586107304
 30
0.0
 10
3.949931164919636
 20
-22.61959261858555
 30
0.0
 10
3.949931164919636
 20
-23.81265071697436
 30
0.0
 10
3.703047009707919
 20
-23.83441941407178
 30
0.0
 10
3.516710407649468
 20
-23.85082668132028
 30
0.0
 10
3.296095105512782
 20
-23.87026993896516
 30
0.0
 10
3.296095105512782
 20
-26.28153533278509
 30
0.0
 10
3.296095105512782
 20
-28.66558447227154
 30
0.0
 10
3.296095105512782
 20
-31.04177448768226
 30
0.0
 10
4.035154214486004
 20
-31.12127006600441
 30
0.0
 10
4.024582077715642
 20
-31.16106091885904
 30
0.0
 10
3.970666333371483
 20
-31.86872659522292
 30
0.0
 10
3.916965907495151
 20
-32.5732701538033
 30
0.0
 10
3.958888413181285
 20
-33.28509147659626
 30
0.0
 10
3.958888413181285
 20
-34.01004722592674
 30
0.0
 10
4.207581243522758
 20
-34.04626379221543
 30
0.0
 10
4.406406316715239
 20
-34.07522412613832
 30
0.0
 10
4.662484570503216
 20
-34.11251728476614
 30
0.0
 10
4.662484570503216
 20
-34.5917300667644
 30
0.0
 10
4.662484570503216
 20
-35.05376043502996
 30
0.0
 10
4.662484570503216
 20
-35.53058318203532
 30
0.0
 10
4.939341056436606
 20
-35.56137372293475
 30
0.0
 10
5.158233810830668
 20
-35.58570470979932
 30
0.0
 10
5.404536606179248
 20
-35.61309321890706
 30
0.0
 10
5.437631054684429
 20
-36.06063265428779
 30
0.0
 10
5.469239805761597
 20
-36.48806134477339
 30
0.0
 10
5.50074089760485
 20
-36.91385361490348
 30
0.0
 10
5.723186406718075
 20
-36.97069769041011
 30
0.0
 10
5.917898897175039
 20
-37.02045778832518
 30
0.0
 10
6.107551403638043
 20
-37.06892597543329
 30
0.0
 10
6.137523734359717
 20
-37.52843711762527
 30
0.0
 10
6.165256753015978
 20
-37.95394947374719
 30
0.0
 10
6.192473007349451
 20
-38.37134432363199
 30
0.0
 10
6.471633400888602
 20
-38.41240555544681
 30
0.0
 10
6.690698410056926
 20
-38.4446171982339
 30
0.0
 10
6.924491202424694
 20
-38.47900355754605
 30
0.0
 10
6.948047042805089
 20
-38.70821006654908
 30
0.0
 10
6.968846806797285
 20
-38.91056636261394
 30
0.0
 10
6.993694557984649
 20
-39.15223981090421
 30
0.0
 10
7.532981192506946
 20
-39.07606013698663
 30
0.0
 10
7.7714248637798
 20
-39.32339646098078
 30
0.0
 10
7.695245189862213
 20
-39.84664186964989
 30
0.0
 10
7.92191094094487
 20
-39.87805683410601
 30
0.0
 10
8.107730778680533
 20
-39.90380892285825
 30
0.0
 10
8.35162200718944
 20
-39.93761392230726
 30
0.0
 10
8.262114120113292
 20
-40.5208255242665
 30
0.0
 10
8.492181902987632
 20
-40.83262819752839
 30
0.0
 10
9.117617456487958
 20
-40.70429839070283
 30
0.0
 10
9.15064730945279
 20
-40.95378789937527
 30
0.0
 10
9.176873098834255
 20
-41.15190242162392
 30
0.0
 10
9.207017684330191
 20
-41.37942944657789
 30
0.0
 10
9.771109006346286
 20
-41.28477544812065
 30
0.0
 10
9.925815325480785
 20
-41.61121977719485
 30
0.0
 10
9.922068784140578
 20
-42.09159527891938
 30
0.0
 10
10.1129486058702
 20
-42.07796561990586
 30
0.0
 10
10.2620135811476
 20
-42.06730735574837
 30
0.0
 10
10.42117699256615
 20
-42.05596007249382
 30
0.0
 10
10.45285033918366
 20
-41.83956501232657
 30
0.0
 10
10.47965748842826
 20
-41.65628593251128
 30
0.0
 10
10.51320410571588
 20
-41.42712248720181
 30
0.0
 10
10.77100490724649
 20
-41.44148422900595
 30
0.0
 10
10.99939320607177
 20
-41.45420955045459
 30
0.0
 10
11.22629580746903
 20
-41.4668487445161
 30
0.0
 10
11.24586825619461
 20
-41.70865138388707
 30
0.0
 10
11.25960557444204
 20
-41.87821467730171
 30
0.0
 10
11.27627122385194
 20
-42.08414525993253
 30
0.0
 10
11.46865827485636
 20
-42.09488965147715
 30
0.0
 10
11.63748948548039
 20
-42.11469895051734
 30
0.0
 10
11.8059546547091
 20
-42.11192134228235
 30
0.0
 10
12.60963083587754
 20
-42.09874385205127
 30
0.0
 10
12.60960930403076
 20
-42.09656913552621
 30
0.0
 10
12.79480471820972
 20
-42.9284950996737
 30
0.0
 10
13.26930202576254
 20
-42.9284950996737
 30
0.0
 10
13.76223059416144
 20
-42.9284950996737
 30
0.0
 10
14.24596506398408
 20
-42.9284950996737
 30
0.0
 10
14.27281527692225
 20
-43.1889227865118
 30
0.0
 10
14.29200015240573
 20
-43.37510866564277
 30
0.0
 10
14.30883805658989
 20
-43.53832006425648
 30
0.0
 10
15.76540289590674
 20
-43.53832006425648
 30
0.0
 10
17.19311506053462
 20
-43.53832006425648
 30
0.0
 10
18.6238416837121
 20
-43.53832006425648
 30
0.0
 10
18.63406931093393
 20
-43.34352144641239
 30
0.0
 10
18.63493058480524
 20
-43.23926424429001
 30
0.0
 10
18.646256336213
 20
-43.13612669820034
 30
0.0
 10
18.65700072775763
 20
-43.03828598641925
 30
0.0
 10
18.67868329746792
 20
-42.94167258990478
 30
0.0
 10
18.69433695007902
 20
-42.85154027927192
 30
0.0
 10
19.34354366242757
 20
-42.81995306004154
 30
0.0
 10
19.33994784401484
 20
-42.82014684666259
 30
0.0
 10
19.37373131161707
 20
-43.43709885253048
 30
0.0
 10
19.38783467125981
 20
-43.69453361266578
 30
0.0
 10
19.42088605607143
 20
-43.95091331230871
 30
0.0
 10
19.44780086454994
 20
-44.23392790642199
 30
0.0
 10
19.63211347301081
 20
-44.23392790642199
 30
0.0
 10
19.79500189392278
 20
-44.23392790642199
 30
0.0
 10
19.98995123469435
 20
-44.23392790642199
 30
0.0
 10
20.04662305542671
 20
-43.78427835005654
 30
0.0
 10
20.10010816283522
 20
-43.35984258627376
 30
0.0
 10
20.15421769380042
 20
-42.93054062511806
 30
0.0
 10
20.34617410786919
 20
-42.90242003321971
 30
0.0
 10
20.5141440446219
 20
-42.87783066419374
 30
0.0
 10
20.61993000786585
 20
-42.86232773451012
 30
0.0
 10
20.73992698998646
 20
-42.59154322936948
 30
0.0
 10
20.82189873068862
 20
-42.19109394290275
 30
0.0
 10
20.93741708867841
 20
-42.18116776153587
 30
0.0
 10
21.63173302003695
 20
-42.12154607779427
 30
0.0
 10
22.33377888439052
 20
-42.15158300405629
 30
0.0
 10
23.01760880636582
 20
-42.15158300405629
 30
0.0
 10
23.01760880636582
 20
-42.64373642597101
 30
0.0
 10
23.01760880636582
 20
-43.12064530036351
 30
0.0
 10
23.01760880636582
 20
-43.60282947721778
 30
0.0
 10
22.75687967367276
 20
-43.62535178895261
 30
0.0
 10
22.53813764220618
 20
-43.64425675042791
 30
0.0
 10
22.32594129216157
 20
-43.66260188388687
 30
0.0
 10
22.32594129216157
 20
-43.90222980673278
 30
0.0
 10
22.32594129216157
 20
-44.10180849456265
 30
0.0
 10
22.32594129216157
 20
-44.33006760230725
 30
0.0
 10
23.01618770447816
 20
-44.29979382573061
 30
0.0
 10
23.66974384987683
 20
-44.27113493766269
 30
0.0
 10
24.34905208402775
 20
-44.24135639356206
 30
0.0
 10
24.34905208402775
 20
-44.04728985850858
 30
0.0
 10
24.34905208402775
 20
-43.88558568916967
 30
0.0
 10
24.34905208402775
 20
-43.71473048494806
 30
0.0
 10
24.06844905675415
 20
-43.5968005601186
 30
0.0
 10
23.64039594271186
 20
-43.81192524132567
 30
0.0
 10
23.62512986334285
 20
-43.24615443526051
 30
0.0
 10
23.60883025532826
 20
-42.64173396422021
 30
0.0
 10
24.08266007563081
 20
-42.87696939032243
 30
0.0
 10
24.30605298600248
 20
-42.72060511898565
 30
0.0
 10
24.38808932224499
 20
-42.4955542564117
 30
0.0
 10
24.48911674734994
 20
-42.13414220816221
 30
0.0
 10
24.62280798402442
 20
-42.12161067333462
 30
0.0
 10
25.26919402444442
 20
-42.06106312018135
 30
0.0
 10
25.92436505835181
 20
-42.0943298234608
 30
0.0
 10
26.57296887899044
 20
-42.0943298234608
 30
0.0
 10
26.57296887899044
 20
-42.8974246447661
 30
0.0
 10
26.57296887899044
 20
-43.58696050613885
 30
0.0
 10
26.57296887899044
 20
-44.28689624950771
 30
0.0
 10
25.85507557540472
 20
-44.32201469161047
 30
0.0
 10
25.16937238275931
 20
-44.35556130889809
 30
0.0
 10
24.46991034001968
 20
-44.38979694528276
 30
0.0
 10
24.44594539455041
 20
-44.6743618323644
 30
0.0
 10
24.42729881523649
 20
-44.89601066314666
 30
0.0
 10
24.40865223592258
 20
-45.11765949392892
 30
0.0
 10
25.38430327734533
 20
-45.11765949392892
 30
0.0
 10
26.35997585061487
 20
-45.11765949392892
 30
0.0
 10
27.3356484238844
 20
-45.11765949392892
 30
0.0
 10
27.61439971233468
 20
-45.11765949392892
 30
0.0
 10
27.89317253263174
 20
-45.11765949392892
 30
0.0
 10
28.17192382108202
 20
-45.11765949392892
 30
0.0
 10
28.8688235740545
 20
-45.11765949392892
 30
0.0
 10
29.56572332702697
 20
-45.11765949392892
 30
0.0
 10
30.26262307999945
 20
-45.11765949392892
 30
0.0
 10
32.00489399427742
 20
-45.11765949392892
 30
0.0
 10
33.74714337670861
 20
-45.11765949392892
 30
0.0
 10
35.4893927591398
 20
-45.11765949392892
 30
0.0
 10
35.9423797517566
 20
-45.11765949392892
 30
0.0
 10
36.39536674437338
 20
-45.11765949392892
 30
0.0
 10
36.84835373699017
 20
-45.11765949392892
 30
0.0
 10
36.84990402995853
 20
-44.84007092520491
 30
0.0
 10
36.8514543229269
 20
-44.56248235648091
 30
0.0
 10
36.85298308404847
 20
-44.28489378775691
 30
0.0
 10
37.36214666492162
 20
-44.28489378775691
 30
0.0
 10
37.87133177764154
 20
-44.28489378775691
 30
0.0
 10
38.39304842518906
 20
-44.28489378775691
 30
0.0
 10
38.39304842518906
 20
-44.03583491602012
 30
0.0
 10
38.39304842518906
 20
-43.81937526031252
 30
0.0
 10
38.39304842518906
 20
-43.57343850635925
 30
0.0
 10
38.12077822262042
 20
-43.57343850635925
 30
0.0
 10
37.88364799400131
 20
-43.57343850635925
 30
0.0
 10
37.65297731941705
 20
-43.57343850635925
 30
0.0
 10
37.52916920041589
 20
-42.91740619858054
 30
0.0
 10
37.52916920041589
 20
-42.91740619858054
 30
0.0
 10
38.30808375778409
 20
-42.79275833755485
 30
0.0
 10
38.34748703739664
 20
-42.57091572015155
 30
0.0
 10
38.38872052398572
 20
-42.33878087998605
 30
0.0
 10
38.4406122747323
 20
-42.04657218729652
 30
0.0
 10
38.87947437585956
 20
-42.08690133632072
 30
0.0
 10
39.30065883077813
 20
-42.12561559683622
 30
0.0
 10
39.59194165405601
 20
-42.15237968238726
 30
0.0
 10
40.09214798666751
 20
-42.6392362699934
 30
0.0
 10
39.38861642488592
 20
-43.67257112894731
 30
0.0
 10
40.55077632314138
 20
-43.63633303081184
 30
0.0
 10
40.55077632314138
 20
-43.87012582317961
 30
0.0
 10
40.55077632314138
 20
-44.07116867659072
 30
0.0
 10
40.55077632314138
 20
-44.27819738340745
 30
0.0
 10
41.43160111133264
 20
-44.27819738340745
 30
0.0
 10
42.28062336182568
 20
-44.28954466666199
 30
0.0
 10
43.12843982889888
 20
-44.26258679448991
 30
0.0
 10
43.22509628910692
 20
-44.25950774039997
 30
0.0
 10
43.38533629286461
 20
-44.04707454004075
 30
0.0
 10
43.39515481499757
 20
-43.92221136054723
 30
0.0
 10
43.42908900552728
 20
-43.49107919241499
 30
0.0
 10
43.40658822563924
 20
-43.05570525046654
 30
0.0
 10
43.41138982747181
 20
-42.62201079256715
 30
0.0
  0
HATCH
  5
46
330
41
100
AcDbEntity
  8
Layer 1
 62
    23
420
 15238218
100
AcDbHatch
 10
0.0
 20
0.0
 30
0.0
210
0.0
220
0.0
230
1.0
  2
SOLID
 70
     1
 71
     0
 91
        1
 92
        1
 93
        1
 72
     4
 94
        3
 73
     0
 74
     1
 95
      695
 96
      691
 40
0.0
 40
0.0
 40
0.0
 40
0.0
 40
1.0
 40
1.0
 40
1.0
 40
2.0
 40
2.0
 40
2.0
 40
3.0
 40
3.0
 40
3.0
 40
4.0
 40
4.0
 40
4.0
 40
5.0
 40
5.0
 40
5.0
 40
6.0
 40
6.0
 40
6.0
 40
7.0
 40
7.0
 40
7.0
 40
8.0
 40
8.0
 40
8.0
 40
9.0
 40
9.0
 40
9.0
 40
10.0
 40
10.0
 40
10.0
 40
11.0
 40
11.0
 40
11.0
 40
12.0
 40
12.0
 40
12.0
 40
13.0
 40
13.0
 40
13.0
 40
14.0
 40
14.0
 40
14.0
 40
15.0
 40
15.0
 40
15.0
 40
16.0
 40
16.0
 40
16.0
 40
17.0
 40
17.0
 40
17.0
 40
18.0
 40
18.0
 40
18.0
 40
19.0
 40
19.0
 40
19.0
 40
20.0
 40
20.0
 40
20.0
 40
21.0
 40
21.0
 40
21.0
 40
22.0
 40
22.0
 40
22.0
 40
23.0
 40
23.0
 40
23.0
 40
24.0
 40
24.0
 40
24.0
 40
25.0
 40
25.0
 40
25.0
 40
26.0
 40
26.0
 40
26.0
 40
27.0
 40
27.0
 40
27.0
 40
28.0
 40
28.0
 40
28.0
 40
29.0
 40
29.0
 40
29.0
 40
30.0
 40
30.0
 40
30.0
 40
31.0
 40
31.0
 40
31.0
 40
32.0
 40
32.0
 40
32.0
 40
33.0
 40
33.0
 40
33.0
 40
34.0
 40
34.0
 40
34.0
 40
35.0
 40
35.0
 40
35.0
 40
36.0
 40
36.0
 40
36.0
 40
37.0
 40
37.0
 40
37.0
 40
38.0
 40
38.0
 40
38.0
 40
39.0
 40
39.0
 40
39.0
 40
40.0
 40
40.0
 40
40.0
 40
41.0
 40
41.0
 40
41.0
 40
42.0
 40
42.0
 40
42.0
 40
43.0
 40
43.0
 40
43.0
 40
44.0
 40
44.0
 40
44.0
 40
45.0
 40
45.0
 40
45.0
 40
46.0
 40
46.0
 40
46.0
 40
47.0
 40
47.0
 40
47.0
 40
48.0
 40
48.0
 40
48.0
 40
49.0
 40
49.0
 40
49.0
 40
50.0
 40
50.0
 40
50.0
 40
51.0
 40
51.0
 40
51.0
 40
52.0
 40
52.0
 40
52.0
 40
53.0
 40
53.0
 40
53.0
 40
54.0
 40
54.0
 40
54.0
 40
55.0
 40
55.0
 40
55.0
 40
56.0
 40
56.0
 40
56.0
 40
57.0
 40
57.0
 40
57.0
 40
58.0
 40
58.0
 40
58.0
 40
59.0
 40
59.0
 40
59.0
 40
60.0
 40
60.0
 40
60.0
 40
61.0
 40
61.0
 40
61.0
 40
62.0
 40
62.0
 40
62.0
 40
63.0
 40
63.0
 40
63.0
 40
64.0
 40
64.0
 40
64.0
 40
65.0
 40
65.0
 40
65.0
 40
66.0
 40
66.0
 40
66.0
 40
67.0
 40
67.0
 40
67.0
 40
68.0
 40
68.0
 40
68.0
 40
69.0
 40
69.0
 40
69.0
 40
70.0
 40
70.0
 40
70.0
 40
71.0
 40
71.0
 40
71.0
 40
72.0
 40
72.0
 40
72.0
 40
73.0
 40
73.0
 40
73.0
 40
74.0
 40
74.0
 40
74.0
 40
75.0
 40
75.0
 40
75.0
 40
76.0
 40
76.0
 40
76.0
 40
77.0
 40
77.0
 40
77.0
 40
78.0
 40
78.0
 40
78.0
 40
79.0
 40
79.0
 40
79.0
 40
80.0
 40
80.0
 40
80.0
 40
81.0
 40
81.0
 40
81.0
 40
82.0
 40
82.0
 40
82.0
 40
83.0
 40
83.0
 40
83.0
 40
84.0
 40
84.0
 40
84.0
 40
85.0
 40
85.0
 40
85.0
 40
86.0
 40
86.0
 40
86.0
 40
87.0
 40
87.0
 40
87.0
 40
88.0
 40
88.0
 40
88.0
 40
89.0
 40
89.0
 40
89.0
 40
90.0
 40
90.0
 40
90.0
 40
91.0
 40
91.0
 40
91.0
 40
92.0
 40
92.0
 40
92.0
 40
93.0
 40
93.0
 40
93.0
 40
94.0
 40
94.0
 40
94.0
 40
95.0
 40
95.0
 40
95.0
 40
96.0
 40
96.0
 40
96.0
 40
97.0
 40
97.0
 40
97.0
 40
98.0
 40
98.0
 40
98.0
 40
99.0
 40
99.0
 40
99.0
 40
100.0
 40
100.0
 40
100.0
 40
101.0
 40
101.0
 40
101.0
 40
102.0
 40
102.0
 40
102.0
 40
103.0
 40
103.0
 40
103.0
 40
104.0
 40
104.0
 40
104.0
 40
105.0
 40
105.0
 40
105.0
 40
106.0
 40
106.0
 40
106.0
 40
107.0
 40
107.0
 40
107.0
 40
108.0
 40
108.0
 40
108.0
 40
109.0
 40
109.0
 40
109.0
 40
110.0
 40
110.0
 40
110.0
 40
111.0
 40
111.0
 40
111.0
 40
112.0
 40
112.0
 40
112.0
 40
113.0
 40
113.0
 40
113.0
 40
114.0
 40
114.0
 40
114.0
 40
115.0
 40
115.0
 40
115.0
 40
116.0
 40
116.0
 40
116.0
 40
117.0
 40
117.0
 40
117.0
 40
118.0
 40
118.0
 40
118.0
 40
119.0
 40
119.0
 40
119.0
 40
120.0
 40
120.0
 40
120.0
 40
121.0
 40
121.0
 40
121.0
 40
122.0
 40
122.0
 40
122.0
 40
123.0
 40
123.0
 40
123.0
 40
124.0
 40
124.0
 40
124.0
 40
125.0
 40
125.0
 40
125.0
 40
126.0
 40
126.0
 40
126.0
 40
127.0
 40
127.0
 40
127.0
 40
128.0
 40
128.0
 40
128.0
 40
129.0
 40
129.0
 40
129.0
 40
130.0
 40
130.0
 40
130.0
 40
131.0
 40
131.0
 40
131.0
 40
132.0
 40
132.0
 40
132.0
 40
133.0
 40
133.0
 40
133.0
 40
134.0
 40
134.0
 40
134.0
 40
135.0
 40
135.0
 40
135.0
 40
136.0
 40
136.0
 40
136.0
 40
137.0
 40
137.0
 40
137.0
 40
138.0
 40
138.0
 40
138.0
 40
139.0
 40
139.0
 40
139.0
 40
140.0
 40
140.0
 40
140.0
 40
141.0
 40
141.0
 40
141.0
 40
142.0
 40
142.0
 40
142.0
 40
143.0
 40
143.0
 40
143.0
 40
144.0
 40
144.0
 40
144.0
 40
145.0
 40
145.0
 40
145.0
 40
146.0
 40
146.0
 40
146.0
 40
147.0
 40
147.0
 40
147.0
 40
148.0
 40
148.0
 40
148.0
 40
149.0
 40
149.0
 40
149.0
 40
150.0
 40
150.0
 40
150.0
 40
151.0
 40
151.0
 40
151.0
 40
152.0
 40
152.0
 40
152.0
 40
153.0
 40
153.0
 40
153.0
 40
154.0
 40
154.0
 40
154.0
 40
155.0
 40
155.0
 40
155.0
 40
156.0
 40
156.0
 40
156.0
 40
157.0
 40
157.0
 40
157.0
 40
158.0
 40
158.0
 40
158.0
 40
159.0
 40
159.0
 40
159.0
 40
160.0
 40
160.0
 40
160.0
 40
161.0
 40
161.0
 40
161.0
 40
162.0
 40
162.0
 40
162.0
 40
163.0
 40
163.0
 40
163.0
 40
164.0
 40
164.0
 40
164.0
 40
165.0
 40
165.0
 40
165.0
 40
166.0
 40
166.0
 40
166.0
 40
167.0
 40
167.0
 40
167.0
 40
168.0
 40
168.0
 40
168.0
 40
169.0
 40
169.0
 40
169.0
 40
170.0
 40
170.0
 40
170.0
 40
171.0
 40
171.0
 40
171.0
 40
172.0
 40
172.0
 40
172.0
 40
173.0
 40
173.0
 40
173.0
 40
174.0
 40
174.0
 40
174.0
 40
175.0
 40
175.0
 40
175.0
 40
176.0
 40
176.0
 40
176.0
 40
177.0
 40
177.0
 40
177.0
 40
178.0
 40
178.0
 40
178.0
 40
179.0
 40
179.0
 40
179.0
 40
180.0
 40
180.0
 40
180.0
 40
181.0
 40
181.0
 40
181.0
 40
182.0
 40
182.0
 40
182.0
 40
183.0
 40
183.0
 40
183.0
 40
184.0
 40
184.0
 40
184.0
 40
185.0
 40
185.0
 40
185.0
 40
186.0
 40
186.0
 40
186.0
 40
187.0
 40
187.0
 40
187.0
 40
188.0
 40
188.0
 40
188.0
 40
189.0
 40
189.0
 40
189.0
 40
190.0
 40
190.0
 40
190.0
 40
191.0
 40
191.0
 40
191.0
 40
192.0
 40
192.0
 40
192.0
 40
193.0
 40
193.0
 40
193.0
 40
194.0
 40
194.0
 40
194.0
 40
195.0
 40
195.0
 40
195.0
 40
196.0
 40
196.0
 40
196.0
 40
197.0
 40
197.0
 40
197.0
 40
198.0
 40
198.0
 40
198.0
 40
199.0
 40
199.0
 40
199.0
 40
200.0
 40
200.0
 40
200.0
 40
201.0
 40
201.0
 40
201.0
 40
202.0
 40
202.0
 40
202.0
 40
203.0
 40
203.0
 40
203.0
 40
204.0
 40
204.0
 40
204.0
 40
205.0
 40
205.0
 40
205.0
 40
206.0
 40
206.0
 40
206.0
 40
207.0
 40
207.0
 40
207.0
 40
208.0
 40
208.0
 40
208.0
 40
209.0
 40
209.0
 40
209.0
 40
210.0
 40
210.0
 40
210.0
 40
211.0
 40
211.0
 40
211.0
 40
212.0
 40
212.0
 40
212.0
 40
213.0
 40
213.0
 40
213.0
 40
214.0
 40
214.0
 40
214.0
 40
215.0
 40
215.0
 40
215.0
 40
216.0
 40
216.0
 40
216.0
 40
217.0
 40
217.0
 40
217.0
 40
218.0
 40
218.0
 40
218.0
 40
219.0
 40
219.0
 40
219.0
 40
220.0
 40
220.0
 40
220.0
 40
221.0
 40
221.0
 40
221.0
 40
222.0
 40
222.0
 40
222.0
 40
223.0
 40
223.0
 40
223.0
 40
224.0
 40
224.0
 40
224.0
 40
225.0
 40
225.0
 40
225.0
 40
226.0
 40
226.0
 40
226.0
 40
227.0
 40
227.0
 40
227.0
 40
228.0
 40
228.0
 40
228.0
 40
229.0
 40
229.0
 40
229.0
 40
230.0
 40
230.0
 40
230.0
 40
230.0
 10
43.41138982747181
 20
-42.62201079256715
 10
43.41395211723896
 20
-42.38925152884497
 10
43.43466575384403
 20
-42.11131845057243
 10
43.0996086860567
 20
-42.17210285404031
 10
42.98090361474306
 20
-42.19363470082312
 10
42.83289369995801
 20
-42.43507129879879
 10
42.8182520441457
 20
-42.58760290140822
 10
42.7165355999437
 20
-43.64783103699386
 10
42.72661250423806
 20
-43.64998422167214
 10
41.6815643206343
 20
-43.6072004421147
 10
41.58103212800535
 20
-43.6030663275324
 10
41.48159805956233
 20
-43.5724911051008
 10
41.34874656491238
 20
-43.54818165008301
 10
41.34874656491238
 20
-43.3088121093985
 10
41.36952479705779
 20
-43.0815649984527
 10
41.34452632294295
 20
-42.85948553073478
 10
41.28837126653337
 20
-42.36042038600278
 10
41.40167184430453
 20
-42.05266569993606
 10
41.99879301928546
 20
-42.11424678173489
 10
42.21068792347511
 20
-42.13610160621945
 10
42.43375785614504
 20
-42.04975890062038
 10
42.65721536205705
 20
-42.01190591397619
 10
42.65721536205705
 20
-41.83317005383208
 10
42.65721536205705
 20
-41.68285623144126
 10
42.65721536205705
 20
-41.52347750155489
 10
42.45468681121793
 20
-41.47739934943968
 10
42.27472363580719
 20
-41.43644577685878
 10
42.10350239019027
 20
-41.39747313418189
 10
42.08843009744231
 20
-41.13444009388306
 10
42.07520954351766
 20
-40.90394167407306
 10
42.06095546094744
 20
-40.65501199341698
 10
41.77766095282598
 20
-40.65501199341698
 10
41.56139508373943
 20
-40.65501199341698
 10
41.3548616093987
 20
-40.65501199341698
 10
41.3548616093987
 20
-40.4221020067673
 10
41.3548616093987
 20
-40.22101608966263
 10
41.3548616093987
 20
-40.01672192738732
 10
41.59046307689622
 20
-39.98982865075558
 10
41.78958959594366
 20
-39.96711255239972
 10
42.04375151536797
 20
-39.93808762293649
 10
42.04375151536797
 20
-39.4257157968927
 10
42.04375151536797
 20
-38.94488812638574
 10
42.04375151536797
 20
-38.4419903129264
 10
42.28439143501267
 20
-38.41770238975538
 10
42.46775664221509
 20
-38.39920653336895
 10
42.6814602215345
 20
-38.37765315473936
 10
42.7122722942807
 20
-37.9094646782939
 10
42.74146947851819
 20
-37.46575791164051
 10
42.77118342707848
 20
-37.01421355275816
 10
42.99750466861261
 20
-36.98238948321317
 10
43.18295846495296
 20
-36.95633594860597
 10
43.4040044040253
 20
-36.92526549369838
 10
43.4040044040253
 20
-35.76069402860323
 10
43.4040044040253
 20
-34.60363717803529
 10
43.4040044040253
 20
-33.39335360222024
 10
42.81590507284637
 20
-33.52827215416134
 10
42.6984919123397
 20
-33.23397487233387
 10
42.72889487999703
 20
-32.76363321121013
 10
42.74629261219754
 20
-32.4943559353443
 10
42.69670476905673
 20
-32.22075075827511
 10
42.6765724923148
 20
-31.93945871190446
 10
42.45337336856418
 20
-31.90571830799579
 10
42.26990050212784
 20
-31.87796375749275
 10
42.04301943257735
 20
-31.84366352556773
 10
42.08752575987742
 20
-31.50731454697343
 10
41.87235801497679
 20
-31.09894154089063
 10
42.45152162974085
 20
-31.04933216590303
 10
42.498697906042
 20
-31.04530571055465
 10
42.56060196554257
 20
-30.92123920939209
 10
42.57229375834564
 20
-30.84620072335399
 10
42.61757523212989
 20
-30.55539160070534
 10
42.70482227529385
 20
-30.25342898142319
 10
42.66496682689886
 20
-29.97136178856836
 10
42.6116755061114
 20
-29.59427455586098
 10
42.78067897150969
 20
-29.06140441167996
 10
42.1354125871224
 20
-28.96384361390704
 10
42.06504651183617
 20
-28.95320688159633
 10
41.98843620098292
 20
-28.7454245601422
 10
41.97734729988978
 20
-28.62340358442401
 10
41.93510181650191
 20
-28.1589185856252
 10
42.32086638346276
 20
-28.16410776069986
 10
42.64476995461659
 20
-28.10304344322381
 10
42.64476995461659
 20
-27.17721709525648
 10
42.64476995461659
 20
-26.27989891242959
 10
42.64476995461659
 20
-25.36234079362686
 10
42.43440381154852
 20
-25.34201473026389
 10
42.25345017118577
 20
-25.32450933882946
 10
42.04605542297373
 20
-25.30446318947467
 10
42.04605542297373
 20
-24.30297393191254
 10
42.01767644891399
 20
-23.32964832994233
 10
42.05740270622827
 20
-22.3591003362071
 10
42.07895608485786
 20
-21.83256055498023
 10
41.98468965964272
 20
-21.5071497545516
 10
41.3891833731705
 20
-21.60499046633269
 10
41.36556293724976
 20
-21.53750965851536
 10
41.34472010956399
 20
-21.5052764838815
 10
41.34433253632191
 20
-21.4728279907798
 10
41.33810983260167
 20
-20.95037926044166
 10
41.3090203075981
 20
-20.42646636452229
 10
41.33879885169872
 20
-19.9059555003946
 10
41.36052448510258
 20
-19.52617678683938
 10
41.201662519539
 20
-19.40493095760537
 10
40.85898317799055
 20
-19.41526624406112
 10
40.76249897255677
 20
-19.41817304337679
 10
40.66515349325168
 20
-19.39181806291463
 10
40.53098855594799
 20
-19.37390356639133
 10
40.53098855594799
 20
-18.91297132231169
 10
40.53184982981929
 20
-18.47968596950117
 10
40.53081630117372
 20
-18.04640061669066
 10
40.52902915789075
 20
-17.28794131376612
 10
40.52853392541474
 20
-17.28794131376612
 10
39.79455633228226
 20
-17.15104183192101
 10
39.76932100785281
 20
-16.95256126827705
 10
39.74391342864909
 20
-16.75278879382613
 10
39.71676176985597
 20
-16.53917134189386
 10
39.51709695463896
 20
-16.51279482958491
 10
39.34947152743477
 20
-16.4906385592454
 10
39.1226981171182
 20
-16.46064469667694
 10
39.1226981171182
 20
-15.99150881897304
 10
39.1226981171182
 20
-15.52975836471565
 10
39.1226981171182
 20
-15.05007188208818
 10
38.86302404491749
 20
-15.02576242707038
 10
38.66223957366778
 20
-15.00696512482899
 10
38.44313150080588
 20
-14.98642374299819
 10
38.42196569541838
 20
-14.7363744063094
 10
38.40217792822498
 20
-14.50266774132876
 10
38.38124897315208
 20
-14.25550367210887
 10
38.1252999104448
 20
-14.23412254825354
 10
37.90393099367072
 20
-14.21564822371388
 10
37.66445379375229
 20
-14.19564513805265
 10
37.63308189298974
 20
-13.99985605525655
 10
37.60392777244581
 20
-13.81786888624822
 10
37.5727496583043
 20
-13.62317792763804
 10
37.33101161447367
 20
-13.60061255220966
 10
37.11140830913578
 20
-13.58011423407242
 10
36.87290004232258
 20
-13.55785030449899
 10
36.85134666369298
 20
-13.30431280863139
 10
36.83145123726566
 20
-13.0701755067151
 10
36.811491215298
 20
-12.83549990862923
 10
36.59449326342082
 20
-12.81730549809776
 10
36.42495150185297
 20
-12.80307294737432
 10
36.2316170495901
 20
-12.78688099859365
 10
36.2316170495901
 20
-12.54832966808688
 10
36.2316170495901
 20
-12.33438923845286
 10
36.2316170495901
 20
-12.12669304438586
 10
36.8139889095248
 20
-12.02217746010209
 10
36.8168741769937
 20
-12.02226358748923
 10
36.83274314807263
 20
-11.43903045368321
 10
36.84019316705948
 20
-11.1659635727836
 10
36.8340350588796
 20
-10.89250911864189
 10
36.8340350588796
 20
-10.57674458557196
 10
37.48059335407386
 20
-10.71614176164388
 10
37.58937224402063
 20
-10.40209977631658
 10
37.55397388790968
 20
-9.9184083701875
 10
37.54523195811586
 20
-9.798928152389678
 10
37.63226368281199
 20
-9.485123017376983
 10
37.72370943609859
 20
-9.171920774074207
 10
37.90024904787086
 20
-9.134929061301337
 10
38.08062132837047
 20
-9.098023475915598
 10
38.28995394279296
 20
-9.055498078519546
 10
38.28995394279296
 20
-8.595663958625824
 10
38.28995394279296
 20
-8.154950118675238
 10
38.28995394279296
 20
-7.717702906056686
 10
38.03589968260257
 20
-7.692209199465837
 10
37.81857875302366
 20
-7.670397438674849
 10
37.61292808440102
 20
-7.649769929456916
 10
37.58674535871312
 20
-7.399569869840646
 10
37.56562261701919
 20
-7.197708806251788
 10
37.54428455685742
 20
-6.993780685371781
 10
37.28786179352092
 20
-6.973411558315242
 10
37.08087615039775
 20
-6.95693969552639
 10
36.8738689754278
 20
-6.940489364584322
 10
36.85515780057354
 20
-6.706287467127682
 10
36.83642509387249
 20
-6.472064037824259
 10
36.81586218019491
 20
-6.214736936922878
 10
36.57539451532447
 20
-6.214736936922878
 10
36.36166940415828
 20
-6.214736936922878
 10
36.14841799362132
 20
-6.214736936922878
 10
36.14884863055698
 20
-6.208858742751171
 10
36.14930079933941
 20
-6.202765230111635
 10
36.14975296812185
 20
-6.196887035939928
 10
36.15029126429143
 20
-6.196305676076792
 10
36.13401318812362
 20
-6.214736936922878
 10
36.13401318812362
 20
-6.214736936922878
 10
36.10134937655409
 20
-6.033288064084126
 10
36.06870709683135
 20
-5.851839191245374
 10
36.02872245735567
 20
-5.629716659833891
 10
35.37230257633487
 20
-5.629716659833891
 10
34.73493837971687
 20
-5.629716659833891
 10
34.12894608386143
 20
-5.629716659833891
 10
34.06273565500428
 20
-5.872638955237569
 10
34.01932745189013
 20
-6.031910025890026
 10
33.97792171052679
 20
-6.192559134736583
 10
33.97994570412438
 20
-6.193937172930682
 10
33.96883527118444
 20
-6.184872265435119
 10
33.96883527118444
 20
-6.184872265435119
 10
33.96911518519262
 20
-6.187800596597581
 10
33.96941663104758
 20
-6.190750459606827
 10
33.96969654505575
 20
-6.193657258922507
 10
33.77039777123405
 20
-6.217945182093517
 10
33.57353209609881
 20
-6.257972885262764
 10
33.37550370123729
 20
-6.264927671773612
 10
32.7711908894309
 20
-6.286158072701464
 10
32.16644744068886
 20
-6.295330639430942
 10
31.56181165118073
 20
-6.306828645612963
 10
31.50684084634421
 20
-6.307883706105321
 10
31.52563814858561
 20
-6.20724385424246
 10
31.48220841362468
 20
-6.214736936922878
 10
31.35588106854992
 20
-5.991796195333649
 10
30.30103589465999
 20
-4.838830395654442
 10
30.15201398307615
 20
-4.806532625480225
 10
28.77354515204055
 20
-4.806532625480225
 10
27.40696190042908
 20
-4.806532625480225
 10
26.02657673502982
 20
-4.806532625480225
 10
26.00050166857583
 20
-5.03970099429129
 10
25.97813007976849
 20
-5.239861041984306
 10
25.95283015979869
 20
-5.466246879058786
 10
25.48091667385981
 20
-5.466246879058786
 10
25.03628403779475
 20
-5.466246879058786
 10
24.56387531937986
 20
-5.466246879058786
 10
24.52935976898702
 20
-5.722432792080677
 10
24.49598540647366
 20
-5.970221284857272
 10
24.45466579249745
 20
-6.276834783044507
 10
23.77070667944144
 20
-6.276834783044507
 10
23.1149758175177
 20
-6.276834783044507
 10
22.45194565953458
 20
-6.276834783044507
 10
22.39996778140088
 20
-6.536659578172693
 10
21.62525193415532
 20
-6.623153006699247
 10
21.5861931640913
 20
-6.818511452559695
 10
21.27850307356492
 20
-6.843466862980974
 10
20.46849652944234
 20
-7.328945412393025
 10
20.02541418634564
 20
-7.699465431831644
 10
20.01441141263963
 20
-7.698647221653897
 10
20.00480820897449
 20
-7.697893607016499
 10
19.99343939387317
 20
-7.697053864991969
 10
19.77058477967107
 20
-7.680603534049902
 10
19.54170124836978
 20
-7.733119708353179
 10
19.32050458636996
 20
-7.708960976262865
 10
18.80098418719428
 20
-7.652224559990156
 10
18.58228521942127
 20
-8.012839929908683
 10
18.62726524735056
 20
-8.477970884110976
 10
18.62334645123609
 20
-8.50848151100222
 10
18.622463645518
 20
-8.545430160081525
 10
18.62117173471103
 20
-8.581496003442734
 10
18.38063947430024
 20
-8.543729144185683
 10
18.11246032262032
 20
-8.489877995381871
 10
17.97502254460564
 20
-8.50395982317783
 10
17.94416740816587
 20
-8.761760624708431
 10
17.92024552639016
 20
-8.961490035465792
 10
17.89759402357465
 20
-9.150668841299574
 10
17.64265695766616
 20
-9.180490449093767
 10
17.43967623804459
 20
-9.20426160794199
 10
17.24022674129541
 20
-9.227602129854558
 10
17.24022674129541
 20
-9.456334938228364
 10
17.24022674129541
 20
-9.652468530572994
 10
17.24022674129541
 20
-9.843154565681573
 10
17.50030991858499
 20
-9.870995243571748
 10
17.71681263798616
 20
-9.894163510710053
 10
17.78026699045511
 20
-9.90094604244664
 10
17.97504407645242
 20
-10.2037699356001
 10
18.08782788990079
 20
-10.55060492357763
 10
18.22145453103492
 20
-10.55885162089544
 10
19.04758842839783
 20
-10.60973137484323
 10
19.87843780020617
 20
-10.58440992302664
 10
20.70982546818409
 20
-10.58440992302664
 10
20.74537454722251
 20
-10.32101084133251
 10
20.77250467416885
 20
-10.12003258346175
 10
20.79896731386493
 20
-9.924049714044596
 10
21.30692511131824
 20
-9.924049714044596
 10
21.78097025008861
 20
-9.924049714044596
 10
22.32105356294187
 20
-9.924049714044596
 10
22.32105356294187
 20
-10.90480380315488
 10
22.32105356294187
 20
-11.83672366376174
 10
22.32105356294187
 20
-12.7776653681706
 10
22.58906045984753
 20
-12.7989603646388
 10
22.79098611897673
 20
-12.81502312233878
 10
23.04015264994743
 20
-12.83483242137897
 10
23.04015264994743
 20
-13.55673064846629
 10
23.04015264994743
 20
-14.2548361848586
 10
23.04015264994743
 20
-14.97328931646067
 10
23.27721828302618
 20
-14.99133300406467
 10
23.46142323225314
 20
-15.00535023632028
 10
23.66664326394011
 20
-15.0209823570846
 10
23.69078046418364
 20
-15.51487985858873
 10
23.71336737145881
 20
-15.97682409946717
 10
23.73614806535503
 20
-16.44275173200042
 10
24.01819372636307
 20
-16.47024790034207
 10
24.25469953142548
 20
-16.49328697639968
 10
24.52929517344667
 20
-16.5200725937975
 10
24.52929517344667
 20
-17.48041449215767
 10
24.52929517344667
 20
-18.41074099610261
 10
24.52929517344667
 20
-19.33277773903616
 10
25.24669324455638
 20
-19.46028933568397
 10
25.24589656622542
 20
-19.46024627199041
 10
25.2000767962716
 20
-20.19650624088186
 10
25.18640407356451
 20
-20.41626026914724
 10
25.17854494948878
 20
-20.63638033880792
 10
25.16653017898398
 20
-20.88795843661829
 10
24.89408772164106
 20
-20.87140044644231
 10
24.67564713602944
 20
-20.85811529697731
 10
24.44314625446864
 20
-20.84396887364101
 10
24.41575774536091
 20
-20.5842948014403
 10
24.39295551961791
 20
-20.36826578266835
 10
24.37099303589944
 20
-20.16011741981891
 10
23.74880879126332
 20
-20.11350097153413
 10
23.74880879126332
 20
-20.11350097153413
 10
23.62788593973105
 20
-19.46153818279738
 10
23.43683386322716
 20
-19.43406354630251
 10
23.23871934097852
 20
-19.40555538116207
 10
23.03070016920977
 20
-19.37564764598074
 10
23.0396789493182
 20
-19.02553981729223
 10
23.00809173008782
 20
-18.74943694599624
 10
22.57086604931605
 20
-18.76310966870332
 10
22.48191799025626
 20
-18.7658872769383
 10
22.30316059826536
 20
-18.57302652530466
 10
22.30890960135637
 20
-18.47912614148482
 10
22.33851589068273
 20
-17.9957361812107
 10
22.02983533520435
 20
-17.98873833100629
 10
21.69983825141098
 20
-18.0040044103753
 10
21.41118231344061
 20
-18.01737568722743
 10
21.12336611749477
 20
-18.04883371537711
 10
20.8374662559126
 20
-18.07210964174934
 10
20.80891502707859
 20
-18.29978738963078
 10
20.78557450516602
 20
-18.48590867322141
 10
20.75988701195413
 20
-18.69067653612594
 10
20.54493458552132
 20
-18.72588110561584
 10
20.34649708557093
 20
-18.7583726624111
 10
20.15283965560632
 20
-18.7900675408754
 10
20.1166661530112
 20
-19.0100368876086
 10
20.08650003566848
 20
-19.19342362665781
 10
20.05461137058314
 20
-19.38723177954989
 10
19.55113219726066
 20
-19.38723177954989
 10
19.07616118907862
 20
-19.38723177954989
 10
18.59970448346856
 20
-19.38723177954989
 10
18.57718217173374
 20
-19.15481702537623
 10
18.55903082489584
 20
-18.96740383097864
 10
18.53999667233983
 20
-18.7709041972387
 10
18.36261731854303
 20
-18.72473991773635
 10
18.20078395812342
 20
-18.68262362542917
 10
17.9987506397603
 20
-18.63002132373876
 10
18.20885840066697
 20
-17.87782778822802
 10
17.70329063820656
 20
-17.87614830417897
 10
17.21234299971167
 20
-17.92442270466603
 10
17.18019595246493
 20
-17.66179876945608
 10
17.15547739235827
 20
-17.45978698293974
 10
17.12933773036393
 20
-17.24629872208817
 10
16.86367780475761
 20
-17.21919012698861
 10
16.63096160472898
 20
-17.19544049998716
 10
16.34611680363917
 20
-17.16639403867715
 10
16.34611680363917
 20
-16.68715972483212
 10
16.34611680363917
 20
-16.24119211426652
 10
16.34611680363917
 20
-15.7482850777144
 10
16.07193026670684
 20
-15.7482850777144
 10
15.8523915569093
 20
-15.7482850777144
 10
15.63375718467663
 20
-15.7482850777144
 10
15.63395097129768
 20
-15.74421555867245
 10
15.63403709868481
 20
-15.7401460396305
 10
15.63425241715264
 20
-15.73607652058855
 10
15.62949387901363
 20
-15.73667941229847
 10
15.62630716568978
 20
-15.73693779445986
 10
15.62159169124434
 20
-15.737519154323
 10
15.62159169124434
 20
-15.05132072920158
 10
15.62159169124434
 20
-14.36512230408016
 10
15.62159169124434
 20
-13.6715815192058
 10
15.38052113466398
 20
-13.63316870454527
 10
15.18165299777794
 20
-13.60147382608097
 10
14.89047783373398
 20
-13.55507269626401
 10
14.89047783373398
 20
-12.32439846154564
 10
14.89047783373398
 20
-11.10890417880915
 10
14.89047783373398
 20
-9.89345295976622
 10
14.89491339417124
 20
-9.894357297331098
 10
14.89857380812431
 20
-9.894486488411795
 10
14.90305243225514
 20
-9.895433889670239
 10
14.90363379211828
 20
-9.891493561708984
 10
14.90417208828785
 20
-9.886541236948938
 10
14.90475344815098
 20
-9.88249324975377
 10
15.1495059505312
 20
-9.88249324975377
 10
15.39425845291142
 20
-9.88249324975377
 10
15.62958000640077
 20
-9.88249324975377
 10
15.65804510784764
 20
-9.609254114079892
 10
15.67908172215445
 20
-9.407242327563555
 10
15.7016901612764
 20
-9.19015824829925
 10
15.9246739665592
 20
-9.163674076756392
 10
16.12136738692018
 20
-9.14031202299704
 10
16.33281012232739
 20
-9.1151843578015
 10
16.34560003931638
 20
-8.82370774790258
 10
16.36207190210523
 20
-8.567629494114604
 10
16.36644286700214
 20
-8.31135745370558
 10
16.36990949433417
 20
-8.107127886970614
 10
16.35914357094277
 20
-7.902639938074254
 10
16.35440656465055
 20
-7.69828118025859
 10
16.35817463783754
 20
-7.699573091065559
 10
16.36095224607252
 20
-7.700175982775477
 10
16.36476338295308
 20
-7.701489425429228
 10
16.36459112817882
 20
-7.698001266250413
 10
16.36454806448525
 20
-7.694470043378032
 10
16.36439734155777
 20
-7.690981884199217
 10
16.61649220369093
 20
-7.674639212491063
 10
16.8688239161387
 20
-7.658275008936126
 10
17.14148169194944
 20
-7.640597362727438
 10
17.14148169194944
 20
-6.948111638345438
 10
17.14148169194944
 20
-6.296471827310431
 10
17.14148169194944
 20
-5.599636669878303
 10
16.40737490773627
 20
-5.599636669878303
 10
15.72339426283347
 20
-5.599636669878303
 10
14.9880386315069
 20
-5.599636669878303
 10
15.11055483970109
 20
-6.34041832659415
 10
14.51304609147808
 20
-6.103847925991399
 10
14.19316897567263
 20
-6.24423556701533
 10
14.17299363523713
 20
-6.480956690545559
 10
14.15423939668931
 20
-6.701098292053024
 10
14.13397792886668
 20
-6.938874476075611
 10
13.88987138188995
 20
-6.97263641183106
 10
13.67461750960218
 20
-7.002393424084906
 10
13.44607848784942
 20
-7.03398064331529
 10
13.42745344038229
 20
-7.323390195923059
 10
13.37239650815864
 20
-7.586789277617192
 10
13.40195973379144
 20
-7.840305241638014
 10
13.46808403526145
 20
-8.407281831123006
 10
13.19387596648235
 20
-8.54937048804278
 10
12.70428483433478
 20
-8.46022864236194
 10
12.16945529209653
 20
-8.362840099363284
 10
11.85422905519617
 20
-8.515328638279154
 10
11.96593627630539
 20
-9.191062585864127
 10
11.49074994965552
 20
-9.191062585864127
 10
11.06405334196055
 20
-9.191062585864127
 10
10.63216755919092
 20
-9.191062585864127
 10
10.58886701531068
 20
-9.457820635656379
 10
10.55622473558794
 20
-9.658798893527141
 10
10.52317335077633
 20
-9.862404036705406
 10
10.29502190226565
 20
-9.882277931285941
 10
10.09169667309557
 20
-9.899998641188196
 10
9.89429270179075
 20
-9.917202586767662
 10
9.813698999282687
 20
-10.64500053987347
 10
9.813698999282687
 20
-10.64500053987347
 10
9.174978296317366
 20
-10.71179232859375
 10
9.1508841597674
 20
-10.92149098441156
 10
9.12614406781395
 20
-11.1367663885461
 10
9.095418122454879
 20
-11.40401967081436
 10
8.446792769969466
 20
-11.21428103696423
 10
8.249948626681002
 20
-11.53889515906189
 10
8.302206418822886
 20
-12.08632083166809
 10
8.04858279556815
 20
-12.10432145557852
 10
7.845559012253021
 20
-12.118747792923
 10
7.609806821828017
 20
-12.13547803787325
 10
7.588274975045206
 20
-12.62694244069092
 10
7.56801350722258
 20
-13.08914506373075
 10
7.547063020302905
 20
-13.56734584893021
 10
7.3443837465363
 20
-13.6072012973252
 10
7.165432567924354
 20
-13.64238433496831
 10
6.954269746525322
 20
-13.68389773556557
 10
6.954269746525322
 20
-14.14625108153288
 10
6.954269746525322
 20
-14.57613440255171
 10
6.954269746525322
 20
-15.00588853248985
 10
6.951492138290339
 20
-15.00560861848167
 10
6.948671466361791
 20
-15.00535023632028
 10
6.945893858126808
 20
-15.0050703223121
 10
6.945893858126808
 20
-15.0050703223121
 10
6.945915389973591
 20
-15.00509185415888
 10
6.945915389973591
 20
-15.00509185415888
 10
6.946044581054288
 20
-15.00827856748274
 10
6.946238367675333
 20
-15.0114652808066
 10
6.94636755875603
 20
-15.01465199413045
 10
6.697114900398204
 20
-15.02593468184465
 10
6.447819178346813
 20
-15.03717430586527
 10
6.182632953369707
 20
-15.04914601267652
 10
6.156859332770681
 20
-15.56231451705126
 10
6.133691065632376
 20
-16.02341901590517
 10
6.110415139260157
 20
-16.48710733637301
 10
5.853238761286256
 20
-16.51516333273102
 10
5.635616385852381
 20
-16.53891295973246
 10
5.387225001365867
 20
-16.56600002298524
 10
5.387225001365867
 20
-17.08024511969912
 10
5.387225001365867
 20
-17.55928564692312
 10
5.387225001365867
 20
-18.03811085567927
 10
5.383607651106355
 20
-18.03757255950971
 10
5.381174552419898
 20
-18.03733570919509
 10
5.377535670313603
 20
-18.03679741302552
 10
5.377492606620037
 20
-18.04069467729321
 10
5.37736341553934
 20
-18.0445919415609
 10
5.377320351845774
 20
-18.04848920582859
 10
5.151515874634431
 20
-18.0383261741471
 10
4.925194633100299
 20
-18.02814161061884
 10
4.652601452829906
 20
-18.01588998979942
 10
4.652601452829906
 20
-18.77208844881175
 10
4.652601452829906
 20
-19.44997558107501
 10
4.652601452829906
 20
-20.12734594901547
 10
4.64881184779613
 20
-20.12657080253129
 10
4.645603602625492
 20
-20.12642007960381
 10
4.641792465744934
 20
-20.12560186942607
 10
4.641770933898151
 20
-20.13068338526681
 10
4.641792465744934
 20
-20.13576490110755
 10
4.641770933898151
 20
-20.1408464169483
 10
4.426538593457168
 20
-20.1408464169483
 10
4.210724893153048
 20
-20.1408464169483
 10
3.949931164919636
 20
-20.1408464169483
 10
3.949931164919636
 20
-21.41966586107304
 10
3.949931164919636
 20
-22.61959261858555
 10
3.949931164919636
 20
-23.81265071697436
 10
3.703047009707919
 20
-23.83441941407178
 10
3.516710407649468
 20
-23.85082668132028
 10
3.296095105512782
 20
-23.87026993896516
 10
3.296095105512782
 20
-26.28153533278509
 10
3.296095105512782
 20
-28.66558447227154
 10
3.296095105512782
 20
-31.04177448768226
 10
4.035154214486004
 20
-31.12127006600441
 10
4.024582077715642
 20
-31.16106091885904
 10
3.970666333371483
 20
-31.86872659522292
 10
3.916965907495151
 20
-32.5732701538033
 10
3.958888413181285
 20
-33.28509147659626
 10
3.958888413181285
 20
-34.01004722592674
 10
4.207581243522758
 20
-34.04626379221543
 10
4.406406316715239
 20
-34.07522412613832
 10
4.662484570503216
 20
-34.11251728476614
 10
4.662484570503216
 20
-34.5917300667644
 10
4.662484570503216
 20
-35.05376043502996
 10
4.662484570503216
 20
-35.53058318203532
 10
4.939341056436606
 20
-35.56137372293475
 10
5.158233810830668
 20
-35.58570470979932
 10
5.404536606179248
 20
-35.61309321890706
 10
5.437631054684429
 20
-36.06063265428779
 10
5.469239805761597
 20
-36.48806134477339
 10
5.50074089760485
 20
-36.91385361490348
 10
5.723186406718075
 20
-36.97069769041011
 10
5.917898897175039
 20
-37.02045778832518
 10
6.107551403638043
 20
-37.06892597543329
 10
6.137523734359717
 20
-37.52843711762527
 10
6.165256753015978
 20
-37.95394947374719
 10
6.192473007349451
 20
-38.37134432363199
 10
6.471633400888602
 20
-38.41240555544681
 10
6.690698410056926
 20
-38.4446171982339
 10
6.924491202424694
 20
-38.47900355754605
 10
6.948047042805089
 20
-38.70821006654908
 10
6.968846806797285
 20
-38.91056636261394
 10
6.993694557984649
 20
-39.15223981090421
 10
7.532981192506946
 20
-39.07606013698663
 10
7.7714248637798
 20
-39.32339646098078
 10
7.695245189862213
 20
-39.84664186964989
 10
7.92191094094487
 20
-39.87805683410601
 10
8.107730778680533
 20
-39.90380892285825
 10
8.35162200718944
 20
-39.93761392230726
 10
8.262114120113292
 20
-40.5208255242665
 10
8.492181902987632
 20
-40.83262819752839
 10
9.117617456487958
 20
-40.70429839070283
 10
9.15064730945279
 20
-40.95378789937527
 10
9.176873098834255
 20
-41.15190242162392
 10
9.207017684330191
 20
-41.37942944657789
 10
9.771109006346286
 20
-41.28477544812065
 10
9.925815325480785
 20
-41.61121977719485
 10
9.922068784140578
 20
-42.09159527891938
 10
10.1129486058702
 20
-42.07796561990586
 10
10.2620135811476
 20
-42.06730735574837
 10
10.42117699256615
 20
-42.05596007249382
 10
10.45285033918366
 20
-41.83956501232657
 10
10.47965748842826
 20
-41.65628593251128
 10
10.51320410571588
 20
-41.42712248720181
 10
10.77100490724649
 20
-41.44148422900595
 10
10.99939320607177
 20
-41.45420955045459
 10
11.22629580746903
 20
-41.4668487445161
 10
11.24586825619461
 20
-41.70865138388707
 10
11.25960557444204
 20
-41.87821467730171
 10
11.27627122385194
 20
-42.08414525993253
 10
11.46865827485636
 20
-42.09488965147715
 10
11.63748948548039
 20
-42.11469895051734
 10
11.8059546547091
 20
-42.11192134228235
 10
12.60963083587754
 20
-42.09874385205127
 10
12.60960930403076
 20
-42.09656913552621
 10
12.79480471820972
 20
-42.9284950996737
 10
13.26930202576254
 20
-42.9284950996737
 10
13.76223059416144
 20
-42.9284950996737
 10
14.24596506398408
 20
-42.9284950996737
 10
14.27281527692225
 20
-43.1889227865118
 10
14.29200015240573
 20
-43.37510866564277
 10
14.30883805658989
 20
-43.53832006425648
 10
15.76540289590674
 20
-43.53832006425648
 10
17.19311506053462
 20
-43.53832006425648
 10
18.6238416837121
 20
-43.53832006425648
 10
18.63406931093393
 20
-43.34352144641239
 10
18.63493058480524
 20
-43.23926424429001
 10
18.646256336213
 20
-43.13612669820034
 10
18.65700072775763
 20
-43.03828598641925
 10
18.67868329746792
 20
-42.94167258990478
 10
18.69433695007902
 20
-42.85154027927192
 10
19.34354366242757
 20
-42.81995306004154
 10
19.33994784401484
 20
-42.82014684666259
 10
19.37373131161707
 20
-43.43709885253048
 10
19.38783467125981
 20
-43.69453361266578
 10
19.42088605607143
 20
-43.95091331230871
 10
19.44780086454994
 20
-44.23392790642199
 10
19.63211347301081
 20
-44.23392790642199
 10
19.79500189392278
 20
-44.23392790642199
 10
19.98995123469435
 20
-44.23392790642199
 10
20.04662305542671
 20
-43.78427835005654
 10
20.10010816283522
 20
-43.35984258627376
 10
20.15421769380042
 20
-42.93054062511806
 10
20.34617410786919
 20
-42.90242003321971
 10
20.5141440446219
 20
-42.87783066419374
 10
20.61993000786585
 20
-42.86232773451012
 10
20.73992698998646
 20
-42.59154322936948
 10
20.82189873068862
 20
-42.19109394290275
 10
20.93741708867841
 20
-42.18116776153587
 10
21.63173302003695
 20
-42.12154607779427
 10
22.33377888439052
 20
-42.15158300405629
 10
23.01760880636582
 20
-42.15158300405629
 10
23.01760880636582
 20
-42.64373642597101
 10
23.01760880636582
 20
-43.12064530036351
 10
23.01760880636582
 20
-43.60282947721778
 10
22.75687967367276
 20
-43.62535178895261
 10
22.53813764220618
 20
-43.64425675042791
 10
22.32594129216157
 20
-43.66260188388687
 10
22.32594129216157
 20
-43.90222980673278
 10
22.32594129216157
 20
-44.10180849456265
 10
22.32594129216157
 20
-44.33006760230725
 10
23.01618770447816
 20
-44.29979382573061
 10
23.66974384987683
 20
-44.27113493766269
 10
24.34905208402775
 20
-44.24135639356206
 10
24.34905208402775
 20
-44.04728985850858
 10
24.34905208402775
 20
-43.88558568916967
 10
24.34905208402775
 20
-43.71473048494806
 10
24.06844905675415
 20
-43.5968005601186
 10
23.64039594271186
 20
-43.81192524132567
 10
23.62512986334285
 20
-43.24615443526051
 10
23.60883025532826
 20
-42.64173396422021
 10
24.08266007563081
 20
-42.87696939032243
 10
24.30605298600248
 20
-42.72060511898565
 10
24.38808932224499
 20
-42.4955542564117
 10
24.48911674734994
 20
-42.13414220816221
 10
24.62280798402442
 20
-42.12161067333462
 10
25.26919402444442
 20
-42.06106312018135
 10
25.92436505835181
 20
-42.0943298234608
 10
26.57296887899044
 20
-42.0943298234608
 10
26.57296887899044
 20
-42.8974246447661
 10
26.57296887899044
 20
-43.58696050613885
 10
26.57296887899044
 20
-44.28689624950771
 10
25.85507557540472
 20
-44.32201469161047
 10
25.16937238275931
 20
-44.35556130889809
 10
24.46991034001968
 20
-44.38979694528276
 10
24.44594539455041
 20
-44.6743618323644
 10
24.42729881523649
 20
-44.89601066314666
 10
24.40865223592258
 20
-45.11765949392892
 10
25.38430327734533
 20
-45.11765949392892
 10
26.35997585061487
 20
-45.11765949392892
 10
27.3356484238844
 20
-45.11765949392892
 10
27.61439971233468
 20
-45.11765949392892
 10
27.89317253263174
 20
-45.11765949392892
 10
28.17192382108202
 20
-45.11765949392892
 10
28.8688235740545
 20
-45.11765949392892
 10
29.56572332702697
 20
-45.11765949392892
 10
30.26262307999945
 20
-45.11765949392892
 10
32.00489399427742
 20
-45.11765949392892
 10
33.74714337670861
 20
-45.11765949392892
 10
35.4893927591398
 20
-45.11765949392892
 10
35.9423797517566
 20
-45.11765949392892
 10
36.39536674437338
 20
-45.11765949392892
 10
36.84835373699017
 20
-45.11765949392892
 10
36.84990402995853
 20
-44.84007092520491
 10
36.8514543229269
 20
-44.56248235648091
 10
36.85298308404847
 20
-44.28489378775691
 10
37.36214666492162
 20
-44.28489378775691
 10
37.87133177764154
 20
-44.28489378775691
 10
38.39304842518906
 20
-44.28489378775691
 10
38.39304842518906
 20
-44.03583491602012
 10
38.39304842518906
 20
-43.81937526031252
 10
38.39304842518906
 20
-43.57343850635925
 10
38.12077822262042
 20
-43.57343850635925
 10
37.88364799400131
 20
-43.57343850635925
 10
37.65297731941705
 20
-43.57343850635925
 10
37.52916920041589
 20
-42.91740619858054
 10
37.52916920041589
 20
-42.91740619858054
 10
38.30808375778409
 20
-42.79275833755485
 10
38.34748703739664
 20
-42.57091572015155
 10
38.38872052398572
 20
-42.33878087998605
 10
38.4406122747323
 20
-42.04657218729652
 10
38.87947437585956
 20
-42.08690133632072
 10
39.30065883077813
 20
-42.12561559683622
 10
39.59194165405601
 20
-42.15237968238726
 10
40.09214798666751
 20
-42.6392362699934
 10
39.38861642488592
 20
-43.67257112894731
 10
40.55077632314138
 20
-43.63633303081184
 10
40.55077632314138
 20
-43.87012582317961
 10
40.55077632314138
 20
-44.07116867659072
 10
40.55077632314138
 20
-44.27819738340745
 10
41.43160111133264
 20
-44.27819738340745
 10
42.28062336182568
 20
-44.28954466666199
 10
43.12843982889888
 20
-44.26258679448991
 10
43.22509628910692
 20
-44.25950774039997
 10
43.38533629286461
 20
-44.04707454004075
 10
43.39515481499757
 20
-43.92221136054723
 10
43.42908900552728
 20
-43.49107919241499
 10
43.40658822563924
 20
-43.05570525046654
 10
43.41138982747181
 20
-42.62201079256715
 97
        0
 97
        0
 75
     2
 76
     1
 98
        0
  0
SPLINE
  5
47
330
41
100
AcDbEntity
  8
Layer 1
370
     0
100
AcDbSpline
210
0.0
220
0.0
230
1.0
 70
    11
 71
     3
 72
    17
 73
    13
 74
     0
 42
0.0000000001
 43
0.0000000001
 12
1.0
 22
0.0
 32
0.0
 13
1.0
 23
0.0
 33
0.0
 40
0.0
 40
0.0
 40
0.0
 40
0.0
 40
1.0
 40
1.0
 40
1.0
 40
2.0
 40
2.0
 40
2.0
 40
3.0
 40
3.0
 40
3.0
 40
4.0
 40
4.0
 40
4.0
 40
4.0
 10
21.95839266757898
 20
-44.41264223471932
 30
0.0
 10
21.37124073765849
 20
-44.35614266876123
 30
0.0
 10
20.77452866776644
 20
-44.39881878908476
 30
0.0
 10
20.15895470009264
 20
-44.39881878908476
 30
0.0
 10
20.14489440414346
 20
-44.67746241830113
 30
0.0
 10
20.13380550305032
 20
-44.89756095611502
 30
0.0
 10
20.12269507011039
 20
-45.11765949392892
 30
0.0
 10
20.81959482308286
 20
-45.11765949392892
 30
0.0
 10
21.51649457605534
 20
-45.11765949392892
 30
0.0
 10
22.21339432902781
 20
-45.11765949392892
 30
0.0
 10
22.15588276627093
 20
-44.86851449480501
 30
0.0
 10
22.40901115704966
 20
-44.45600737413991
 30
0.0
 10
21.95839266757898
 20
-44.41264223471932
 30
0.0
  0
HATCH
  5
48
330
41
100
AcDbEntity
  8
Layer 1
 62
    23
420
 15238218
100
AcDbHatch
 10
0.0
 20
0.0
 30
0.0
210
0.0
220
0.0
230
1.0
  2
SOLID
 70
     1
 71
     0
 91
        1
 92
        1
 93
        1
 72
     4
 94
        3
 73
     0
 74
     1
 95
       17
 96
       13
 40
0.0
 40
0.0
 40
0.0
 40
0.0
 40
1.0
 40
1.0
 40
1.0
 40
2.0
 40
2.0
 40
2.0
 40
3.0
 40
3.0
 40
3.0
 40
4.0
 40
4.0
 40
4.0
 40
4.0
 10
21.95839266757898
 20
-44.41264223471932
 10
21.37124073765849
 20
-44.35614266876123
 10
20.77452866776644
 20
-44.39881878908476
 10
20.15895470009264
 20
-44.39881878908476
 10
20.14489440414346
 20
-44.67746241830113
 10
20.13380550305032
 20
-44.89756095611502
 10
20.12269507011039
 20
-45.11765949392892
 10
20.81959482308286
 20
-45.11765949392892
 10
21.51649457605534
 20
-45.11765949392892
 10
22.21339432902781
 20
-45.11765949392892
 10
22.15588276627093
 20
-44.86851449480501
 10
22.40901115704966
 20
-44.45600737413991
 10
21.95839266757898
 20
-44.41264223471932
 97
        0
 97
        0
 75
     2
 76
     1
 98
        0
  0
SPLINE
  5
49
330
41
100
AcDbEntity
  8
Layer 1
370
     0
100
AcDbSpline
210
0.0
220
0.0
230
1.0
 70
    11
 71
     3
 72
    17
 73
    13
 74
     0
 42
0.0000000001
 43
0.0000000001
 12
1.0
 22
0.0
 32
0.0
 13
1.0
 23
0.0
 33
0.0
 40
0.0
 40
0.0
 40
0.0
 40
0.0
 40
1.0
 40
1.0
 40
1.0
 40
2.0
 40
2.0
 40
2.0
 40
3.0
 40
3.0
 40
3.0
 40
4.0
 40
4.0
 40
4.0
 40
4.0
 10
38.47620441746428
 20
-44.39173481149322
 30
0.0
 10
38.45282083185815
 20
-44.67552455209067
 30
0.0
 10
38.43460488947989
 20
-44.8965920230098
 30
0.0
 10
38.41638894710163
 20
-45.11765949392892
 30
0.0
 10
39.11328870007411
 20
-45.11765949392892
 30
0.0
 10
39.81018845304659
 20
-45.11765949392892
 30
0.0
 10
40.50710973786585
 20
-45.11765949392892
 30
0.0
 10
40.48686980189
 20
-44.88266091814132
 30
0.0
 10
40.46662986591416
 20
-44.64764081050693
 30
0.0
 10
40.44460278665535
 20
-44.39173481149322
 30
0.0
 10
39.76189252071274
 20
-44.39173481149322
 30
0.0
 10
39.1288346934513
 20
-44.39173481149322
 30
0.0
 10
38.47620441746428
 20
-44.39173481149322
 30
0.0
  0
HATCH
  5
4A
330
41
100
AcDbEntity
  8
Layer 1
 62
    23
420
 15238218
100
AcDbHatch
 10
0.0
 20
0.0
 30
0.0
210
0.0
220
0.0
230
1.0
  2
SOLID
 70
     1
 71
     0
 91
        1
 92
        1
 93
        1
 72
     4
 94
        3
 73
     0
 74
     1
 95
       17
 96
       13
 40
0.0
 40
0.0
 40
0.0
 40
0.0
 40
1.0
 40
1.0
 40
1.0
 40
2.0
 40
2.0
 40
2.0
 40
3.0
 40
3.0
 40
3.0
 40
4.0
 40
4.0
 40
4.0
 40
4.0
 10
38.47620441746428
 20
-44.39173481149322
 10
38.45282083185815
 20
-44.67552455209067
 10
38.43460488947989
 20
-44.8965920230098
 10
38.41638894710163
 20
-45.11765949392892
 10
39.11328870007411
 20
-45.11765949392892
 10
39.81018845304659
 20
-45.11765949392892
 10
40.50710973786585
 20
-45.11765949392892
 10
40.48686980189
 20
-44.88266091814132
 10
40.46662986591416
 20
-44.64764081050693
 10
40.44460278665535
 20
-44.39173481149322
 10
39.76189252071274
 20
-44.39173481149322
 10
39.1288346934513
 20
-44.39173481149322
 10
38.47620441746428
 20
-44.39173481149322
 97
        0
 97
        0
 75
     2
 76
     1
 98
        0
  0
ENDBLK
  5
44
330
41
100
AcDbEntity
  8
0
100
AcDbBlockEnd
  0
ENDSEC
  0
SECTION
  2
ENTITIES
  0
INSERT
  5
42
330
1F
100
AcDbEntity
  8
Layer 1
100
AcDbBlockReference
  2
block 2
 10
0.0
 20
0.0
 30
0.0
  0
ENDSEC
  0
SECTION
  2
OBJECTS
  0
DICTIONARY
  5
C
330
0
100
AcDbDictionary
281
     1
  3
ACAD_GROUP
350
D
  3
ACAD_LAYOUT
350
1A
  3
ACAD_MATERIAL
350
3B
  3
ACAD_MLEADERSTYLE
350
4C
  3
ACAD_MLINESTYLE
350
17
  3
ACAD_PLOTSETTINGS
350
19
  3
ACAD_PLOTSTYLENAME
350
E
  3
ACAD_TABLESTYLE
350
4B
  3
ACAD_VISUALSTYLE
350
2A
  0
SUN
  5
3F
330
29
100
AcDbSun
 90
        1
290
     0
 63
     7
421
 16777215
 40
1.0
291
     1
 91
  2455826
 92
 54000000
292
     0
 70
     2
 71
   256
280
     1
  0
DICTIONARY
  5
D
102
{ACAD_REACTORS
330
C
102
}
330
C
100
AcDbDictionary
281
     1
  0
DICTIONARY
  5
1A
102
{ACAD_REACTORS
330
C
102
}
330
C
100
AcDbDictionary
281
     1
  3
Layout1
350
1E
  3
Layout2
350
26
  3
Model
350
22
  0
DICTIONARY
  5
3B
102
{ACAD_REACTORS
330
C
102
}
330
C
100
AcDbDictionary
281
     1
  3
ByBlock
350
3D
  3
ByLayer
350
3C
  3
Global
350
3E
  0
DICTIONARY
  5
4C
102
{ACAD_REACTORS
330
C
102
}
330
C
100
AcDbDictionary
281
     1
  0
DICTIONARY
  5
17
102
{ACAD_REACTORS
330
C
102
}
330
C
100
AcDbDictionary
281
     1
  3
Standard
350
18
  0
DICTIONARY
  5
19
102
{ACAD_REACTORS
330
C
102
}
330
C
100
AcDbDictionary
281
     1
  0
ACDBDICTIONARYWDFLT
  5
E
102
{ACAD_REACTORS
330
C
102
}
330
C
100
AcDbDictionary
281
     1
  3
Normal
350
F
100
AcDbDictionaryWithDefault
340
F
  0
DICTIONARY
  5
4B
102
{ACAD_REACTORS
330
C
102
}
330
C
100
AcDbDictionary
281
     1
  0
DICTIONARY
  5
2A
102
{ACAD_REACTORS
330
C
102
}
330
C
100
AcDbDictionary
281
     1
  3
2dWireframe
350
2F
  3
3D Hidden
350
31
  3
3dWireframe
350
30
  3
Basic
350
32
  3
Brighten
350
36
  3
ColorChange
350
3A
  3
Conceptual
350
34
  3
Dim
350
35
  3
Facepattern
350
39
  3
Flat
350
2B
  3
FlatWithEdges
350
2C
  3
Gouraud
350
2D
  3
GouraudWithEdges
350
2E
  3
Linepattern
350
38
  3
Realistic
350
33
  3
Thicken
350
37
  0
LAYOUT
  5
1E
102
{ACAD_REACTORS
330
1A
102
}
330
1A
100
AcDbPlotSettings
  1

  2
none_device
  4

  6

 40
0.0
 41
0.0
 42
0.0
 43
0.0
 44
0.0
 45
0.0
 46
0.0
 47
0.0
 48
0.0
 49
0.0
140
0.0
141
0.0
142
1.0
143
1.0
 70
   688
 72
     0
 73
     0
 74
     5
  7

 75
    16
 76
     0
 77
     2
 78
   300
147
1.0
148
0.0
149
0.0
100
AcDbLayout
  1
Layout1
 70
     1
 71
     1
 10
0.0
 20
0.0
 11
12.0
 21
9.0
 12
0.0
 22
0.0
 32
0.0
 14
1.000000000000000E+20
 24
1.000000000000000E+20
 34
1.000000000000000E+20
 15
-1.000000000000000E+20
 25
-1.000000000000000E+20
 35
-1.000000000000000E+20
146
0.0
 13
0.0
 23
0.0
 33
0.0
 16
1.0
 26
0.0
 36
0.0
 17
0.0
 27
1.0
 37
0.0
 76
     0
330
1B
  0
LAYOUT
  5
26
102
{ACAD_REACTORS
330
1A
102
}
330
1A
100
AcDbPlotSettings
  1

  2
none_device
  4

  6

 40
0.0
 41
0.0
 42
0.0
 43
0.0
 44
0.0
 45
0.0
 46
0.0
 47
0.0
 48
0.0
 49
0.0
140
0.0
141
0.0
142
1.0
143
1.0
 70
   688
 72
     0
 73
     0
 74
     5
  7

 75
    16
 76
     0
 77
     2
 78
   300
147
1.0
148
0.0
149
0.0
100
AcDbLayout
  1
Layout2
 70
     1
 71
     2
 10
0.0
 20
0.0
 11
0.0
 21
0.0
 12
0.0
 22
0.0
 32
0.0
 14
0.0
 24
0.0
 34
0.0
 15
0.0
 25
0.0
 35
0.0
146
0.0
 13
0.0
 23
0.0
 33
0.0
 16
1.0
 26
0.0
 36
0.0
 17
0.0
 27
1.0
 37
0.0
 76
     0
330
23
  0
LAYOUT
  5
22
102
{ACAD_REACTORS
330
1A
102
}
330
1A
100
AcDbPlotSettings
  1

  2
none_device
  4

  6

 40
0.0
 41
0.0
 42
0.0
 43
0.0
 44
0.0
 45
0.0
 46
0.0
 47
0.0
 48
0.0
 49
0.0
140
0.0
141
0.0
142
1.0
143
1.0
 70
  1712
 72
     0
 73
     0
 74
     0
  7

 75
     0
 76
     0
 77
     2
 78
   300
147
1.0
148
0.0
149
0.0
100
AcDbLayout
  1
Model
 70
     1
 71
     0
 10
0.0
 20
0.0
 11
12.0
 21
9.0
 12
0.0
 22
0.0
 32
0.0
 14
1.000000000000000E+20
 24
1.000000000000000E+20
 34
1.000000000000000E+20
 15
-1.000000000000000E+20
 25
-1.000000000000000E+20
 35
-1.000000000000000E+20
146
0.0
 13
0.0
 23
0.0
 33
0.0
 16
1.0
 26
0.0
 36
0.0
 17
0.0
 27
1.0
 37
0.0
 76
     0
330
1F
331
29
  0
MATERIAL
  5
3D
102
{ACAD_REACTORS
330
3B
102
}
330
3B
100
AcDbMaterial
  1
ByBlock
 72
     1
 94
      127
  0
MATERIAL
  5
3C
102
{ACAD_REACTORS
330
3B
102
}
330
3B
100
AcDbMaterial
  1
ByLayer
 72
     1
 94
      127
  0
MATERIAL
  5
3E
102
{ACAD_REACTORS
330
3B
102
}
330
3B
100
AcDbMaterial
  1
Global
 72
     1
 94
      127
  0
MLINESTYLE
  5
18
102
{ACAD_REACTORS
330
17
102
}
330
17
100
AcDbMlineStyle
  2
Standard
 70
     0
  3

 62
   256
 51
90.0
 52
90.0
 71
     2
 49
0.5
 62
   256
  6
BYLAYER
 49
-0.5
 62
   256
  6
BYLAYER
  0
ACDBPLACEHOLDER
  5
F
102
{ACAD_REACTORS
330
E
102
}
330
E
  0
VISUALSTYLE
  5
2F
102
{ACAD_REACTORS
330
2A
102
}
330
2A
100
AcDbVisualStyle
  2
2dWireframe
 70
     4
177
     2
291
     0
 71
     0
176
     1
 72
     2
176
     1
 73
     0
176
     1
 90
        0
176
     1
 40
-0.6
176
     1
 41
-30.0
176
     1
 62
     5
 63
     7
421
 16777215
176
     1
 74
     1
176
     1
 91
        4
176
     1
 64
     7
176
     1
 65
   257
176
     1
 75
     1
176
     1
175
     1
176
     1
 42
1.0
176
     1
 92
        0
176
     1
 66
   257
176
     1
 43
1.0
176
     1
 76
     1
176
     1
 77
     6
176
     1
 78
     2
176
     1
 67
     7
176
     1
 79
     5
176
     1
170
     0
176
     1
171
     0
176
     1
290
     0
176
     1
 93
        1
176
     1
 44
0.0
176
     1
173
     0
176
     1
  0
VISUALSTYLE
  5
31
102
{ACAD_REACTORS
330
2A
102
}
330
2A
100
AcDbVisualStyle
  2
3D Hidden
 70
     6
177
     2
291
     0
 71
     1
176
     1
 72
     2
176
     1
 73
     2
176
     1
 90
        0
176
     1
 40
-0.6
176
     1
 41
-30.0
176
     1
 62
     5
 63
     7
421
 16777215
176
     1
 74
     2
176
     1
 91
        2
176
     1
 64
     7
176
     1
 65
   257
176
     1
 75
     2
176
     1
175
     1
176
     1
 42
40.0
176
     1
 92
        0
176
     1
 66
   257
176
     1
 43
1.0
176
     1
 76
     1
176
     1
 77
     6
176
     1
 78
     2
176
     1
 67
     7
176
     1
 79
     3
176
     1
170
     0
176
     1
171
     0
176
     1
290
     0
176
     1
 93
        1
176
     1
 44
0.0
176
     1
173
     0
176
     1
  0
VISUALSTYLE
  5
30
102
{ACAD_REACTORS
330
2A
102
}
330
2A
100
AcDbVisualStyle
  2
3dWireframe
 70
     5
177
     2
291
     0
 71
     0
176
     1
 72
     2
176
     1
 73
     0
176
     1
 90
        0
176
     1
 40
-0.6
176
     1
 41
-30.0
176
     1
 62
     5
 63
     7
421
 16777215
176
     1
 74
     1
176
     1
 91
        4
176
     1
 64
     7
176
     1
 65
   257
176
     1
 75
     1
176
     1
175
     1
176
     1
 42
1.0
176
     1
 92
        0
176
     1
 66
   257
176
     1
 43
1.0
176
     1
 76
     1
176
     1
 77
     6
176
     1
 78
     2
176
     1
 67
     7
176
     1
 79
     5
176
     1
170
     0
176
     1
171
     0
176
     1
290
     0
176
     1
 93
        1
176
     1
 44
0.0
176
     1
173
     0
176
     1
  0
VISUALSTYLE
  5
32
102
{ACAD_REACTORS
330
2A
102
}
330
2A
100
AcDbVisualStyle
  2
Basic
 70
     7
177
     2
291
     1
 71
     1
176
     1
 72
     0
176
     1
 73
     1
176
     1
 90
        0
176
     1
 40
-0.6
176
     1
 41
-30.0
176
     1
 62
     5
 63
     7
421
 16777215
176
     1
 74
     0
176
     1
 91
        4
176
     1
 64
     7
176
     1
 65
   257
176
     1
 75
     1
176
     1
175
     1
176
     1
 42
1.0
176
     1
 92
        8
176
     1
 66
     7
176
     1
 43
1.0
176
     1
 76
     1
176
     1
 77
     6
176
     1
 78
     2
176
     1
 67
     7
176
     1
 79
     5
176
     1
170
     0
176
     1
171
     0
176
     1
290
     0
176
     1
 93
        1
176
     1
 44
0.0
176
     1
173
     0
176
     1
  0
VISUALSTYLE
  5
36
102
{ACAD_REACTORS
330
2A
102
}
330
2A
100
AcDbVisualStyle
  2
Brighten
 70
    12
177
     2
291
     1
 71
     2
176
     1
 72
     2
176
     1
 73
     0
176
     1
 90
        0
176
     1
 40
-0.6
176
     1
 41
-30.0
176
     1
 62
     5
 63
     7
421
 16777215
176
     1
 74
     1
176
     1
 91
        4
176
     1
 64
     7
176
     1
 65
   257
176
     1
 75
     1
176
     1
175
     1
176
     1
 42
1.0
176
     1
 92
        8
176
     1
 66
     7
176
     1
 43
1.0
176
     1
 76
     1
176
     1
 77
     6
176
     1
 78
     2
176
     1
 67
     7
176
     1
 79
     5
176
     1
170
     0
176
     1
171
     0
176
     1
290
     0
176
     1
 93
        1
176
     1
 44
50.0
176
     1
173
     0
176
     1
  0
VISUALSTYLE
  5
3A
102
{ACAD_REACTORS
330
2A
102
}
330
2A
100
AcDbVisualStyle
  2
ColorChange
 70
    16
177
     2
291
     1
 71
     2
176
     1
 72
     2
176
     1
 73
     3
176
     1
 90
        0
176
     1
 40
-0.6
176
     1
 41
-30.0
176
     1
 62
     5
 63
     8
421
  8421504
176
     1
 74
     1
176
     1
 91
        4
176
     1
 64
     7
176
     1
 65
   257
176
     1
 75
     1
176
     1
175
     1
176
     1
 42
1.0
176
     1
 92
        8
176
     1
 66
     8
424
  8421504
176
     1
 43
1.0
176
     1
 76
     1
176
     1
 77
     6
176
     1
 78
     2
176
     1
 67
     7
176
     1
 79
     5
176
     1
170
     0
176
     1
171
     0
176
     1
290
     0
176
     1
 93
        1
176
     1
 44
0.0
176
     1
173
     0
176
     1
  0
VISUALSTYLE
  5
34
102
{ACAD_REACTORS
330
2A
102
}
330
2A
100
AcDbVisualStyle
  2
Conceptual
 70
     9
177
     2
291
     0
 71
     3
176
     1
 72
     2
176
     1
 73
     0
176
     1
 90
        0
176
     1
 40
-0.6
176
     1
 41
-30.0
176
     1
 62
     5
 63
     7
421
 16777215
176
     1
 74
     2
176
     1
 91
        2
176
     1
 64
     7
176
     1
 65
   257
176
     1
 75
     1
176
     1
175
     1
176
     1
 42
40.0
176
     1
 92
        8
176
     1
 66
     7
176
     1
 43
1.0
176
     1
 76
     1
176
     1
 77
     6
176
     1
 78
     2
176
     1
 67
     7
176
     1
 79
     3
176
     1
170
     0
176
     1
171
     0
176
     1
290
     0
176
     1
 93
        1
176
     1
 44
0.0
176
     1
173
     0
176
     1
  0
VISUALSTYLE
  5
35
102
{ACAD_REACTORS
330
2A
102
}
330
2A
100
AcDbVisualStyle
  2
Dim
 70
    11
177
     2
291
     1
 71
     2
176
     1
 72
     2
176
     1
 73
     0
176
     1
 90
        0
176
     1
 40
-0.6
176
     1
 41
-30.0
176
     1
 62
     5
 63
     7
421
 16777215
176
     1
 74
     1
176
     1
 91
        4
176
     1
 64
     7
176
     1
 65
   257
176
     1
 75
     1
176
     1
175
     1
176
     1
 42
1.0
176
     1
 92
        8
176
     1
 66
     7
176
     1
 43
1.0
176
     1
 76
     1
176
     1
 77
     6
176
     1
 78
     2
176
     1
 67
     7
176
     1
 79
     5
176
     1
170
     0
176
     1
171
     0
176
     1
290
     0
176
     1
 93
        1
176
     1
 44
-50.0
176
     1
173
     0
176
     1
  0
VISUALSTYLE
  5
39
102
{ACAD_REACTORS
330
2A
102
}
330
2A
100
AcDbVisualStyle
  2
Facepattern
 70
    15
177
     2
291
     1
 71
     2
176
     1
 72
     2
176
     1
 73
     0
176
     1
 90
        0
176
     1
 40
-0.6
176
     1
 41
-30.0
176
     1
 62
     5
 63
     7
421
 16777215
176
     1
 74
     1
176
     1
 91
        4
176
     1
 64
     7
176
     1
 65
   257
176
     1
 75
     1
176
     1
175
     1
176
     1
 42
1.0
176
     1
 92
        8
176
     1
 66
     7
176
     1
 43
1.0
176
     1
 76
     1
176
     1
 77
     6
176
     1
 78
     2
176
     1
 67
     7
176
     1
 79
     5
176
     1
170
     0
176
     1
171
     0
176
     1
290
     0
176
     1
 93
        1
176
     1
 44
0.0
176
     1
173
     0
176
     1
  0
VISUALSTYLE
  5
2B
102
{ACAD_REACTORS
330
2A
102
}
330
2A
100
AcDbVisualStyle
  2
Flat
 70
     0
177
     2
291
     1
 71
     2
176
     1
 72
     1
176
     1
 73
     1
176
     1
 90
        2
176
     1
 40
-0.6
176
     1
 41
30.0
176
     1
 62
     5
 63
     7
421
 16777215
176
     1
 74
     0
176
     1
 91
        4
176
     1
 64
     7
176
     1
 65
   257
176
     1
 75
     1
176
     1
175
     1
176
     1
 42
1.0
176
     1
 92
        8
176
     1
 66
     7
176
     1
 43
1.0
176
     1
 76
     1
176
     1
 77
     6
176
     1
 78
     2
176
     1
 67
     7
176
     1
 79
     5
176
     1
170
     0
176
     1
171
     0
176
     1
290
     0
176
     1
 93
       13
176
     1
 44
0.0
176
     1
173
     0
176
     1
  0
VISUALSTYLE
  5
2C
102
{ACAD_REACTORS
330
2A
102
}
330
2A
100
AcDbVisualStyle
  2
FlatWithEdges
 70
     1
177
     2
291
     1
 71
     2
176
     1
 72
     1
176
     1
 73
     1
176
     1
 90
        2
176
     1
 40
-0.6
176
     1
 41
30.0
176
     1
 62
     5
 63
     7
421
 16777215
176
     1
 74
     1
176
     1
 91
        4
176
     1
 64
     7
176
     1
 65
   257
176
     1
 75
     1
176
     1
175
     1
176
     1
 42
1.0
176
     1
 92
        0
176
     1
 66
   257
176
     1
 43
1.0
176
     1
 76
     1
176
     1
 77
     6
176
     1
 78
     2
176
     1
 67
     7
176
     1
 79
     5
176
     1
170
     0
176
     1
171
     0
176
     1
290
     0
176
     1
 93
       13
176
     1
 44
0.0
176
     1
173
     0
176
     1
  0
VISUALSTYLE
  5
2D
102
{ACAD_REACTORS
330
2A
102
}
330
2A
100
AcDbVisualStyle
  2
Gouraud
 70
     2
177
     2
291
     1
 71
     2
176
     1
 72
     2
176
     1
 73
     1
176
     1
 90
        2
176
     1
 40
-0.6
176
     1
 41
30.0
176
     1
 62
     5
 63
     7
421
 16777215
176
     1
 74
     0
176
     1
 91
        4
176
     1
 64
     7
176
     1
 65
   257
176
     1
 75
     1
176
     1
175
     1
176
     1
 42
1.0
176
     1
 92
        0
176
     1
 66
     7
176
     1
 43
1.0
176
     1
 76
     1
176
     1
 77
     6
176
     1
 78
     2
176
     1
 67
     7
176
     1
 79
     5
176
     1
170
     0
176
     1
171
     0
176
     1
290
     0
176
     1
 93
       13
176
     1
 44
0.0
176
     1
173
     0
176
     1
  0
VISUALSTYLE
  5
2E
102
{ACAD_REACTORS
330
2A
102
}
330
2A
100
AcDbVisualStyle
  2
GouraudWithEdges
 70
     3
177
     2
291
     1
 71
     2
176
     1
 72
     2
176
     1
 73
     1
176
     1
 90
        2
176
     1
 40
-0.6
176
     1
 41
30.0
176
     1
 62
     5
 63
     7
421
 16777215
176
     1
 74
     1
176
     1
 91
        4
176
     1
 64
     7
176
     1
 65
   257
176
     1
 75
     1
176
     1
175
     1
176
     1
 42
1.0
176
     1
 92
        0
176
     1
 66
   257
176
     1
 43
1.0
176
     1
 76
     1
176
     1
 77
     6
176
     1
 78
     2
176
     1
 67
     7
176
     1
 79
     5
176
     1
170
     0
176
     1
171
     0
176
     1
290
     0
176
     1
 93
       13
176
     1
 44
0.0
176
     1
173
     0
176
     1
  0
VISUALSTYLE
  5
38
102
{ACAD_REACTORS
330
2A
102
}
330
2A
100
AcDbVisualStyle
  2
Linepattern
 70
    14
177
     2
291
     1
 71
     2
176
     1
 72
     2
176
     1
 73
     0
176
     1
 90
        0
176
     1
 40
-0.6
176
     1
 41
-30.0
176
     1
 62
     5
 63
     7
421
 16777215
176
     1
 74
     1
176
     1
 91
        4
176
     1
 64
     7
176
     1
 65
   257
176
     1
 75
     7
176
     1
175
     7
176
     1
 42
1.0
176
     1
 92
        8
176
     1
 66
     7
176
     1
 43
1.0
176
     1
 76
     1
176
     1
 77
     6
176
     1
 78
     2
176
     1
 67
     7
176
     1
 79
     5
176
     1
170
     0
176
     1
171
     0
176
     1
290
     0
176
     1
 93
        1
176
     1
 44
0.0
176
     1
173
     0
176
     1
  0
VISUALSTYLE
  5
33
102
{ACAD_REACTORS
330
2A
102
}
330
2A
100
AcDbVisualStyle
  2
Realistic
 70
     8
177
     2
291
     0
 71
     2
176
     1
 72
     2
176
     1
 73
     0
176
     1
 90
        0
176
     1
 40
-0.6
176
     1
 41
-30.0
176
     1
 62
     5
 63
     7
421
 16777215
176
     1
 74
     1
176
     1
 91
        0
176
     1
 64
     7
176
     1
 65
   257
176
     1
 75
     1
176
     1
175
     1
176
     1
 42
1.0
176
     1
 92
        8
176
     1
 66
     8
424
  7895160
176
     1
 43
1.0
176
     1
 76
     1
176
     1
 77
     6
176
     1
 78
     2
176
     1
 67
     7
176
     1
 79
     5
176
     1
170
     0
176
     1
171
     0
176
     1
290
     0
176
     1
 93
       13
176
     1
 44
0.0
176
     1
173
     0
176
     1
  0
VISUALSTYLE
  5
37
102
{ACAD_REACTORS
330
2A
102
}
330
2A
100
AcDbVisualStyle
  2
Thicken
 70
    13
177
     2
291
     1
 71
     2
176
     1
 72
     2
176
     1
 73
     0
176
     1
 90
        0
176
     1
 40
-0.6
176
     1
 41
-30.0
176
     1
 62
     5
 63
     7
421
 16777215
176
     1
 74
     1
176
     1
 91
        4
176
     1
 64
     7
176
     1
 65
   257
176
     1
 75
     1
176
     1
175
     1
176
     1
 42
1.0
176
     1
 92
       12
176
     1
 66
     7
176
     1
 43
1.0
176
     1
 76
     1
176
     1
 77
     6
176
     1
 78
     2
176
     1
 67
     7
176
     1
 79
     5
176
     1
170
     0
176
     1
171
     0
176
     1
290
     0
176
     1
 93
        1
176
     1
 44
0.0
176
     1
173
     0
176
     1
  0
ENDSEC
  0
EOF
